<?xml version="1.0" encoding="UTF-8" standalone="no"?>
<!DOCTYPE svg PUBLIC "-//W3C//DTD SVG 1.1//EN" "http://www.w3.org/Graphics/SVG/1.1/DTD/svg11.dtd">
<svg width="100%" height="100%" viewBox="0 0 491 115" version="1.1" xmlns="http://www.w3.org/2000/svg" xmlns:xlink="http://www.w3.org/1999/xlink" xml:space="preserve" xmlns:serif="http://www.serif.com/" style="fill-rule:evenodd;clip-rule:evenodd;stroke-linejoin:round;stroke-miterlimit:2;">
    <g transform="matrix(1,0,0,1,-2688,-2335.96)">
        <g id="Artboard5" transform="matrix(1,0,0,0.569709,-0.695704,948.416)">
            <rect x="2688.7" y="2435.54" width="490.217" height="200.453" style="fill:none;"/>
            <g transform="matrix(2.48088,0,0,1.05533,-3301.83,3260.51)">
                <g transform="matrix(-0.0373265,-0.153948,-0.0187282,0.0772419,2523.53,-331.734)">
                    <path d="M2457.27,496.29C2501.29,516.932 2542.19,503.154 2568.69,450.339C2619.59,348.88 2598.22,141.534 2520.98,-12.398C2443.75,-166.331 2339.72,-208.932 2288.81,-107.473C2262.31,-54.658 2255.4,26.849 2265.75,114.578C2317.46,109.652 2368.03,143.723 2405.34,218.088C2442.65,292.453 2459.74,393.23 2457.27,496.29Z" style="fill:white;"/>
                </g>
                <g transform="matrix(0.242346,0,0,1,1815.88,-905.972)">
                    <path d="M2491.73,164.366C2493.44,165.393 2495.18,166.742 2496.8,168.37C2502.45,174.014 2504.74,180.895 2501.9,183.727C2499.07,186.559 2492.18,184.276 2486.54,178.632C2485.12,177.212 2483.91,175.714 2482.94,174.221C2480.16,171.096 2478.18,162.899 2478.18,153.292C2478.18,140.996 2481.43,131.016 2485.43,131.018C2489.44,131.02 2492.69,141.004 2492.69,153.3C2492.69,157.327 2492.34,161.105 2491.73,164.366ZM2582.91,174.221C2581.94,175.714 2580.73,177.212 2579.31,178.632C2573.66,184.276 2566.78,186.559 2563.95,183.727C2561.11,180.895 2563.4,174.014 2569.04,168.37C2570.67,166.742 2572.41,165.393 2574.11,164.366C2573.5,161.105 2573.16,157.327 2573.16,153.3C2573.16,141.004 2576.41,131.02 2580.41,131.018C2584.42,131.016 2587.67,140.996 2587.67,153.292C2587.67,162.899 2585.69,171.096 2582.91,174.221Z" style="fill:white;"/>
                </g>
                <g transform="matrix(0.242346,0,0,1,1815.88,-904.448)">
                    <path d="M2554.76,237.895C2562.37,244.95 2567.21,255.57 2567.21,267.438C2567.21,288.658 2551.73,305.886 2532.66,305.886C2513.6,305.886 2498.12,288.658 2498.12,267.438C2498.12,255.57 2502.96,244.95 2510.56,237.895C2516.55,232.336 2524.26,228.991 2532.66,228.991C2541.07,228.991 2548.77,232.336 2554.76,237.895Z" style="fill:white;"/>
                </g>
                <g transform="matrix(0.914347,0,0,3.7729,-91.8477,-1409.75)">
                    <path d="M2821.84,192.137C2822.08,191.803 2822.36,191.481 2822.66,191.168C2823.61,190.196 2824.75,189.409 2826.07,188.81C2827.39,188.21 2828.75,187.91 2830.15,187.91C2832.13,187.91 2833.79,188.302 2835.12,189.087C2836.45,189.872 2837.45,191.057 2838.12,192.643C2838.79,194.229 2839.13,196.211 2839.13,198.591L2839.13,214.516L2833.03,214.516L2833.03,199.038C2833.03,197.709 2832.84,196.607 2832.48,195.732C2832.12,194.856 2831.56,194.215 2830.81,193.806C2830.06,193.398 2829.14,193.22 2828.04,193.273C2827.15,193.273 2826.34,193.413 2825.6,193.692C2824.86,193.972 2824.21,194.365 2823.67,194.872C2823.12,195.379 2822.69,195.964 2822.38,196.629C2822.08,197.293 2821.92,198.014 2821.92,198.791L2821.92,214.516L2815.82,214.516L2815.82,188.454L2821.77,188.454L2821.84,192.137Z" style="fill:white;"/>
                </g>
                <g transform="matrix(0.914347,0,0,3.7729,-92.1014,-1409.75)">
                    <path d="M2848.09,194.104L2842.96,194.104L2842.96,188.454L2848.09,188.454L2848.09,181.817L2854.19,181.817L2854.19,188.454L2859.88,188.454L2859.88,194.104L2854.19,194.104L2854.19,214.516L2848.09,214.516L2848.09,194.104Z" style="fill:white;"/>
                </g>
                <g transform="matrix(0.914347,0,0,3.7729,-90.8175,-1409.75)">
                    <path d="M2875.11,206.463L2882.22,188.454L2888.68,188.454L2877.15,214.516L2872.59,214.516L2861.61,188.454L2868.26,188.454L2875.11,206.463Z" style="fill:white;"/>
                </g>
                <g transform="matrix(0.914347,0,0,3.7729,-90.8479,-1409.75)">
                    <path d="M2893.27,214.516L2893.27,188.454L2899.37,188.454L2899.37,214.516L2893.27,214.516ZM2896.26,186.075C2895.16,186.075 2894.3,185.799 2893.7,185.247C2893.09,184.696 2892.78,183.915 2892.78,182.907C2892.78,181.969 2893.1,181.207 2893.72,180.62C2894.34,180.032 2895.19,179.739 2896.26,179.739C2897.37,179.739 2898.22,180.014 2898.83,180.566C2899.44,181.118 2899.75,181.898 2899.75,182.907C2899.75,183.844 2899.43,184.606 2898.81,185.194C2898.19,185.781 2897.34,186.075 2896.26,186.075Z" style="fill:white;"/>
                </g>
                <g transform="matrix(0.914347,0,0,3.7729,-90.6056,-1409.75)">
                    <path d="M2915.05,215.011C2912.73,215.011 2910.66,214.62 2908.84,213.838C2907.01,213.057 2905.52,211.941 2904.36,210.491L2908.31,207.11C2909.31,208.217 2910.41,209.019 2911.63,209.517C2912.84,210.015 2914.13,210.263 2915.5,210.263C2916.04,210.263 2916.53,210.199 2916.99,210.071C2917.45,209.943 2917.84,209.749 2918.18,209.489C2918.51,209.23 2918.76,208.922 2918.93,208.567C2919.11,208.212 2919.2,207.817 2919.2,207.384C2919.2,206.6 2918.89,205.975 2918.29,205.508C2917.96,205.297 2917.45,205.06 2916.75,204.797C2916.05,204.533 2915.14,204.257 2914.03,203.967C2912.24,203.506 2910.75,202.975 2909.56,202.376C2908.38,201.776 2907.44,201.094 2906.76,200.33C2906.2,199.683 2905.79,198.971 2905.52,198.192C2905.24,197.414 2905.11,196.552 2905.11,195.608C2905.11,194.466 2905.36,193.427 2905.87,192.491C2906.38,191.554 2907.08,190.741 2907.97,190.052C2908.86,189.362 2909.89,188.833 2911.07,188.464C2912.26,188.094 2913.5,187.91 2914.81,187.91C2916.12,187.91 2917.39,188.073 2918.63,188.399C2919.87,188.726 2921.03,189.197 2922.09,189.813C2923.16,190.43 2924.07,191.159 2924.83,192.003L2921.47,195.721C2920.86,195.128 2920.18,194.597 2919.44,194.129C2918.7,193.661 2917.94,193.294 2917.17,193.027C2916.41,192.76 2915.7,192.626 2915.06,192.626C2914.44,192.626 2913.88,192.684 2913.38,192.799C2912.88,192.914 2912.47,193.088 2912.13,193.322C2911.8,193.556 2911.54,193.845 2911.37,194.19C2911.19,194.535 2911.11,194.925 2911.11,195.359C2911.13,195.754 2911.23,196.126 2911.41,196.475C2911.59,196.824 2911.85,197.121 2912.18,197.364C2912.53,197.601 2913.07,197.861 2913.79,198.144C2914.51,198.427 2915.46,198.714 2916.63,199.005C2918.25,199.433 2919.6,199.908 2920.68,200.429C2921.77,200.95 2922.63,201.551 2923.27,202.231C2923.89,202.836 2924.33,203.535 2924.6,204.325C2924.86,205.116 2924.99,205.996 2924.99,206.964C2924.99,208.515 2924.55,209.899 2923.67,211.116C2922.79,212.334 2921.6,213.287 2920.1,213.977C2918.6,214.666 2916.92,215.011 2915.05,215.011Z" style="fill:white;fill-rule:nonzero;"/>
                </g>
                <g transform="matrix(0.914347,0,0,3.7729,-90.1417,-1409.75)">
                    <path d="M2934.34,202.867C2934.49,203.895 2934.81,204.824 2935.28,205.655C2935.99,206.9 2937,207.861 2938.3,208.539C2939.61,209.217 2941.14,209.556 2942.89,209.556C2944.11,209.556 2945.24,209.361 2946.26,208.969C2947.28,208.578 2948.39,207.878 2949.57,206.871L2952.56,211.065C2951.68,211.89 2950.67,212.593 2949.52,213.173C2948.38,213.753 2947.19,214.204 2945.94,214.527C2944.7,214.849 2943.47,215.011 2942.26,215.011C2939.51,215.011 2937.09,214.437 2935,213.29C2932.91,212.142 2931.28,210.571 2930.1,208.576C2928.93,206.581 2928.34,204.288 2928.34,201.697C2928.34,199.666 2928.67,197.81 2929.33,196.129C2929.99,194.447 2930.91,192.989 2932.08,191.752C2933.26,190.516 2934.67,189.56 2936.3,188.884C2937.93,188.208 2939.7,187.87 2941.62,187.87C2943.36,187.87 2944.97,188.195 2946.45,188.845C2947.93,189.494 2949.21,190.391 2950.3,191.536C2951.39,192.68 2952.23,194.034 2952.81,195.597C2953.39,197.16 2953.66,198.865 2953.62,200.712L2953.58,202.867L2934.34,202.867ZM2934.47,198.682L2947.67,198.682L2947.67,198.426C2947.59,197.432 2947.27,196.545 2946.7,195.766C2946.14,194.986 2945.42,194.372 2944.55,193.924C2943.67,193.477 2942.71,193.253 2941.66,193.253C2940.05,193.253 2938.69,193.562 2937.59,194.181C2936.48,194.799 2935.64,195.701 2935.08,196.886C2934.81,197.427 2934.61,198.026 2934.47,198.682Z" style="fill:white;"/>
                </g>
                <g transform="matrix(-0.914347,-4.62047e-16,1.11975e-16,-3.7729,5101.56,78.1795)">
                    <path d="M2892.13,190.608L2892.13,179.861L2898.33,179.861L2898.33,201.214C2898.33,203.825 2897.72,206.159 2896.49,208.216C2895.26,210.273 2893.57,211.887 2891.42,213.057C2889.26,214.228 2886.82,214.813 2884.08,214.813C2881.34,214.813 2878.9,214.228 2876.74,213.057C2874.59,211.887 2872.9,210.273 2871.68,208.216C2870.45,206.159 2869.84,203.825 2869.84,201.214L2869.84,179.861L2876.28,179.861L2876.28,190.608L2892.13,190.608ZM2876.28,196.212L2876.28,200.769C2876.28,202.302 2876.64,203.676 2877.35,204.891C2878.06,206.105 2879.01,207.071 2880.19,207.788C2881.37,208.505 2882.67,208.864 2884.08,208.864C2885.59,208.864 2886.95,208.505 2888.16,207.788C2889.37,207.071 2890.34,206.105 2891.05,204.891C2891.77,203.676 2892.13,202.302 2892.13,200.769L2892.13,196.212L2876.28,196.212Z" style="fill:white;"/>
                </g>
            </g>
        </g>
    </g>
</svg>
