<?xml version="1.0" encoding="UTF-8" standalone="no"?>
<!DOCTYPE svg PUBLIC "-//W3C//DTD SVG 1.1//EN" "http://www.w3.org/Graphics/SVG/1.1/DTD/svg11.dtd">
<svg width="100%" height="100%" viewBox="0 0 331 30" version="1.1" xmlns="http://www.w3.org/2000/svg" xmlns:xlink="http://www.w3.org/1999/xlink" xml:space="preserve" xmlns:serif="http://www.serif.com/" style="fill-rule:evenodd;clip-rule:evenodd;stroke-linejoin:round;stroke-miterlimit:2;">
    <g transform="matrix(1,0,0,1,-11216.7,-8347.05)">
        <g transform="matrix(1.17412,0,0,1.17412,-1975.98,-1457.49)">
            <g transform="matrix(0.130245,0,0,0.130245,11393,8350.22)">
                <g>
                    <path d="M403.3,173.7C397,167.3 393.8,158.3 393.8,146.7L393.8,14.3L415.5,14.3L415.5,144.9C415.5,151.4 417,156.4 420.1,159.8C423.2,163.3 427.8,165 434,165C437.8,165 441.3,164.2 444.6,162.7L445.7,180.6C440.7,182.4 435.5,183.3 430.1,183.3C418.6,183.3 409.7,180.1 403.3,173.7Z" style="fill:white;fill-rule:nonzero;"/>
                    <path d="M578,62.2L578,182L557.4,182L557.4,163.9C553,170.1 547.3,174.9 540.1,178.3C532.9,181.7 525.1,183.4 516.7,183.4C500.7,183.4 488.1,179 479,170.2C469.8,161.4 465.2,148.4 465.2,131.2L465.2,62.2L486.9,62.2L486.9,128.6C486.9,140.2 489.7,149 495.3,154.9C500.9,160.9 508.9,163.8 519.3,163.8C530.7,163.8 539.8,160.3 546.4,153.4C553,146.5 556.3,136.7 556.3,124L556.3,62.2L578,62.2Z" style="fill:white;fill-rule:nonzero;"/>
                    <path d="M656.9,66.5C664.3,62.9 673.2,61.1 683.8,61.1L683.8,82.1C682.6,82 680.9,81.9 678.8,81.9C667,81.9 657.8,85.4 651.1,92.4C644.4,99.4 641,109.4 641,122.3L641,182L619.3,182L619.3,62.2L640.1,62.2L640.1,82.3C643.9,75.4 649.5,70.1 656.9,66.5Z" style="fill:white;fill-rule:nonzero;"/>
                    <path d="M866.8,175.4C857.3,170.1 849.9,162.9 844.5,153.6C839.2,144.3 836.5,133.8 836.5,122.1C836.5,110.4 839.2,99.8 844.5,90.6C849.8,81.3 857.3,74.1 866.8,68.9C876.3,63.7 887,61 898.9,61C910.8,61 921.5,63.6 930.9,68.8C940.3,74 947.7,81.2 953,90.5C958.3,99.8 961,110.3 961,122C961,133.7 958.3,144.3 953,153.5C947.7,162.8 940.3,170 930.9,175.3C921.5,180.6 910.8,183.2 898.9,183.2C887,183.3 876.3,180.7 866.8,175.4ZM919.6,159C925.7,155.5 930.5,150.5 933.9,144.1C937.4,137.7 939.1,130.4 939.1,122.1C939.1,113.8 937.4,106.5 933.9,100.1C930.4,93.7 925.7,88.8 919.6,85.3C913.5,81.8 906.6,80.1 898.9,80.1C891.2,80.1 884.3,81.8 878.2,85.3C872.1,88.8 867.3,93.7 863.7,100.1C860.2,106.5 858.4,113.9 858.4,122.1C858.4,130.4 860.2,137.7 863.7,144.1C867.2,150.5 872.1,155.5 878.2,159C884.3,162.5 891.2,164.3 898.9,164.3C906.6,164.3 913.5,162.5 919.6,159Z" style="fill:white;fill-rule:nonzero;"/>
                    <path d="M356.2,90.5C350.9,81.2 343.5,74 334.1,68.8C324.7,63.6 314,61 302.1,61C290.2,61 279.5,63.6 270,68.8C266.9,70.5 264.1,72.4 261.4,74.5L261.4,14.3L239.7,14.3L239.7,117.8C239.7,129.6 242.4,144.3 247.7,153.6C253,162.9 260.5,170.1 270,175.4C279.5,180.7 290.2,183.3 302.1,183.3C314,183.3 324.7,180.7 334.1,175.4C343.5,170.1 350.9,162.9 356.2,153.6C361.5,144.3 364.2,133.8 364.2,122.1C364.2,110.4 361.6,99.8 356.2,90.5ZM337.1,144.1C333.6,150.5 328.9,155.5 322.8,159C316.7,162.5 309.8,164.3 302.1,164.3C294.4,164.3 287.5,162.5 281.4,159C275.3,155.5 270.5,150.5 266.9,144.1C263.4,137.7 261.6,130.4 261.6,122.1C261.6,113.8 263.4,106.5 266.9,100.1C270.4,93.7 275.3,88.8 281.4,85.3C287.5,81.8 294.4,80.1 302.1,80.1C309.8,80.1 316.7,81.8 322.8,85.3C328.9,88.8 333.7,93.7 337.1,100.1C340.6,106.5 342.3,113.9 342.3,122.1C342.3,130.3 340.6,137.7 337.1,144.1Z" style="fill:white;fill-rule:nonzero;"/>
                    <g>
                        <path d="M809.9,90.3C804.9,81 797.9,73.8 789,68.7C780.1,63.6 769.9,61 758.3,61C746.9,61 736.6,63.6 727.5,68.8C718.4,74 711.2,81.2 706,90.4C700.8,99.6 698.2,110.1 698.2,122C698.2,133.9 700.9,144.4 706.2,153.6C711.5,162.8 719.1,170 728.8,175.3C738.5,180.6 749.8,183.2 762.6,183.2C772.5,183.2 781.5,181.5 789.6,178.2C797.7,174.9 804.4,170.1 809.8,163.7L797.8,149.7C793.4,154.5 788.3,158.1 782.5,160.6C776.7,163.1 770.3,164.2 763.2,164.2C754.6,164.2 747,162.5 740.4,159C733.8,155.5 728.6,150.7 724.9,144.4C722.2,139.8 720.5,134.7 719.7,129.1L817,129.1C817.2,128 817.3,126.9 817.3,125.7C817.4,124.5 817.4,123.4 817.4,122.5C817.5,110.4 814.9,99.6 809.9,90.3ZM719.7,113.7C720.3,108.2 721.9,103.2 724.3,98.7C727.6,92.6 732.2,87.8 738.1,84.5C744,81.1 750.7,79.4 758.2,79.4C765.9,79.4 772.6,81.1 778.4,84.5C784.2,87.9 788.8,92.6 792.1,98.6C794.6,103.2 796.1,108.2 796.6,113.7L719.7,113.7Z" style="fill:white;fill-rule:nonzero;"/>
                    </g>
                </g>
                <g>
                    <g>
                        <path d="M165.7,154.8C165.7,177.1 147.6,195.2 125.3,195.2C103,195.2 84.9,177.1 84.9,154.8C84.9,132.5 103,114.4 125.3,114.4C147.6,114.4 165.7,132.5 165.7,154.8Z" style="fill:white;fill-rule:nonzero;"/>
                        <path d="M152.2,72.1C152.2,87 140.1,99.1 125.2,99.1C110.3,99.1 98.2,87 98.2,72.1C98.2,57.2 110.3,45.1 125.2,45.1C140.1,45.1 152.2,57.2 152.2,72.1Z" style="fill:white;fill-rule:nonzero;"/>
                        <circle cx="125.2" cy="15.8" r="13.5" style="fill:white;"/>
                    </g>
                    <g>
                        <path d="M2.3,42.7C2.3,20.4 20.4,2.3 42.7,2.3C65,2.3 83.1,20.4 83.1,42.7C83.1,65 65.1,83.2 42.8,83.2C20.5,83.2 2.3,65.1 2.3,42.7Z" style="fill:white;fill-rule:nonzero;"/>
                        <circle cx="42.8" cy="125.5" r="27" style="fill:white;"/>
                        <circle cx="42.8" cy="181.8" r="13.5" style="fill:white;"/>
                    </g>
                </g>
            </g>
            <g transform="matrix(0.0967326,0,0,0.0967326,10324.7,7781.29)">
                <g transform="matrix(0.999429,0,0,1,5.36252,0)">
                    <g transform="matrix(268.436,0,0,268.436,9398.79,6120)">
                        <path d="M0.754,-0.535C0.797,-0.535 0.835,-0.527 0.867,-0.51C0.9,-0.494 0.925,-0.468 0.943,-0.434C0.962,-0.4 0.971,-0.357 0.971,-0.305L0.971,-0L0.875,-0L0.875,-0.294C0.875,-0.346 0.863,-0.384 0.839,-0.41C0.815,-0.436 0.782,-0.449 0.738,-0.449C0.706,-0.449 0.678,-0.443 0.654,-0.429C0.63,-0.416 0.612,-0.396 0.599,-0.37C0.586,-0.344 0.579,-0.312 0.579,-0.273L0.579,-0L0.483,-0L0.483,-0.294C0.483,-0.346 0.471,-0.384 0.447,-0.41C0.424,-0.436 0.39,-0.449 0.346,-0.449C0.315,-0.449 0.287,-0.443 0.263,-0.429C0.239,-0.416 0.22,-0.396 0.207,-0.37C0.194,-0.344 0.187,-0.312 0.187,-0.273L0.187,-0L0.091,-0L0.091,-0.53L0.183,-0.53L0.183,-0.389L0.168,-0.425C0.185,-0.46 0.21,-0.487 0.245,-0.506C0.28,-0.526 0.32,-0.535 0.366,-0.535C0.417,-0.535 0.46,-0.523 0.497,-0.498C0.534,-0.473 0.558,-0.435 0.569,-0.384L0.53,-0.4C0.546,-0.44 0.574,-0.473 0.614,-0.498C0.654,-0.523 0.7,-0.535 0.754,-0.535Z" style="fill:white;fill-rule:nonzero;"/>
                    </g>
                    <g transform="matrix(268.436,0,0,268.436,9682.54,6120)">
                        <path d="M0.327,0.006C0.27,0.006 0.221,-0.006 0.178,-0.029C0.135,-0.052 0.102,-0.084 0.078,-0.125C0.054,-0.166 0.042,-0.213 0.042,-0.265C0.042,-0.317 0.054,-0.364 0.077,-0.405C0.099,-0.445 0.131,-0.477 0.171,-0.5C0.212,-0.524 0.257,-0.535 0.308,-0.535C0.359,-0.535 0.404,-0.524 0.444,-0.501C0.483,-0.478 0.514,-0.446 0.537,-0.405C0.559,-0.365 0.57,-0.317 0.57,-0.262C0.57,-0.258 0.57,-0.254 0.57,-0.248C0.569,-0.243 0.569,-0.238 0.568,-0.233L0.117,-0.233L0.117,-0.302L0.518,-0.302L0.479,-0.278C0.48,-0.312 0.473,-0.343 0.458,-0.369C0.443,-0.395 0.423,-0.416 0.397,-0.431C0.372,-0.446 0.342,-0.454 0.308,-0.454C0.275,-0.454 0.245,-0.446 0.219,-0.431C0.193,-0.416 0.173,-0.395 0.158,-0.369C0.144,-0.342 0.136,-0.311 0.136,-0.276L0.136,-0.26C0.136,-0.224 0.144,-0.193 0.161,-0.166C0.177,-0.138 0.199,-0.117 0.229,-0.101C0.258,-0.086 0.292,-0.079 0.33,-0.079C0.361,-0.079 0.39,-0.084 0.416,-0.094C0.442,-0.105 0.464,-0.121 0.483,-0.142L0.536,-0.08C0.512,-0.052 0.482,-0.031 0.447,-0.016C0.411,-0.002 0.371,0.006 0.327,0.006Z" style="fill:white;fill-rule:nonzero;"/>
                    </g>
                    <g transform="matrix(268.436,0,0,268.436,9846.91,6120)">
                        <path d="M0.754,-0.535C0.797,-0.535 0.835,-0.527 0.867,-0.51C0.9,-0.494 0.925,-0.468 0.943,-0.434C0.962,-0.4 0.971,-0.357 0.971,-0.305L0.971,-0L0.875,-0L0.875,-0.294C0.875,-0.346 0.863,-0.384 0.839,-0.41C0.815,-0.436 0.782,-0.449 0.738,-0.449C0.706,-0.449 0.678,-0.443 0.654,-0.429C0.63,-0.416 0.612,-0.396 0.599,-0.37C0.586,-0.344 0.579,-0.312 0.579,-0.273L0.579,-0L0.483,-0L0.483,-0.294C0.483,-0.346 0.471,-0.384 0.447,-0.41C0.424,-0.436 0.39,-0.449 0.346,-0.449C0.315,-0.449 0.287,-0.443 0.263,-0.429C0.239,-0.416 0.22,-0.396 0.207,-0.37C0.194,-0.344 0.187,-0.312 0.187,-0.273L0.187,-0L0.091,-0L0.091,-0.53L0.183,-0.53L0.183,-0.389L0.168,-0.425C0.185,-0.46 0.21,-0.487 0.245,-0.506C0.28,-0.526 0.32,-0.535 0.366,-0.535C0.417,-0.535 0.46,-0.523 0.497,-0.498C0.534,-0.473 0.558,-0.435 0.569,-0.384L0.53,-0.4C0.546,-0.44 0.574,-0.473 0.614,-0.498C0.654,-0.523 0.7,-0.535 0.754,-0.535Z" style="fill:white;fill-rule:nonzero;"/>
                    </g>
                    <g transform="matrix(268.436,0,0,268.436,10130.7,6120)">
                        <path d="M0.372,0.006C0.327,0.006 0.286,-0.005 0.25,-0.025C0.213,-0.045 0.184,-0.075 0.163,-0.115C0.142,-0.155 0.132,-0.205 0.132,-0.265C0.132,-0.325 0.142,-0.375 0.164,-0.415C0.186,-0.455 0.215,-0.485 0.251,-0.505C0.288,-0.525 0.328,-0.535 0.372,-0.535C0.424,-0.535 0.47,-0.524 0.51,-0.501C0.55,-0.479 0.582,-0.447 0.605,-0.407C0.628,-0.366 0.64,-0.319 0.64,-0.265C0.64,-0.211 0.628,-0.164 0.605,-0.123C0.582,-0.083 0.55,-0.051 0.51,-0.028C0.47,-0.006 0.424,0.006 0.372,0.006ZM0.091,-0L0.091,-0.742L0.187,-0.742L0.187,-0.389L0.177,-0.266L0.183,-0.143L0.183,-0L0.091,-0ZM0.364,-0.079C0.398,-0.079 0.429,-0.086 0.455,-0.101C0.482,-0.117 0.504,-0.139 0.519,-0.167C0.535,-0.195 0.543,-0.228 0.543,-0.265C0.543,-0.303 0.535,-0.336 0.519,-0.364C0.504,-0.391 0.482,-0.413 0.455,-0.428C0.429,-0.444 0.398,-0.451 0.364,-0.451C0.33,-0.451 0.3,-0.444 0.273,-0.428C0.246,-0.413 0.225,-0.391 0.209,-0.364C0.194,-0.336 0.186,-0.303 0.186,-0.265C0.186,-0.228 0.194,-0.195 0.209,-0.167C0.225,-0.139 0.246,-0.117 0.273,-0.101C0.3,-0.086 0.33,-0.079 0.364,-0.079Z" style="fill:white;fill-rule:nonzero;"/>
                    </g>
                    <g transform="matrix(268.436,0,0,268.436,10313.7,6120)">
                        <path d="M0.327,0.006C0.27,0.006 0.221,-0.006 0.178,-0.029C0.135,-0.052 0.102,-0.084 0.078,-0.125C0.054,-0.166 0.042,-0.213 0.042,-0.265C0.042,-0.317 0.054,-0.364 0.077,-0.405C0.099,-0.445 0.131,-0.477 0.171,-0.5C0.212,-0.524 0.257,-0.535 0.308,-0.535C0.359,-0.535 0.404,-0.524 0.444,-0.501C0.483,-0.478 0.514,-0.446 0.537,-0.405C0.559,-0.365 0.57,-0.317 0.57,-0.262C0.57,-0.258 0.57,-0.254 0.57,-0.248C0.569,-0.243 0.569,-0.238 0.568,-0.233L0.117,-0.233L0.117,-0.302L0.518,-0.302L0.479,-0.278C0.48,-0.312 0.473,-0.343 0.458,-0.369C0.443,-0.395 0.423,-0.416 0.397,-0.431C0.372,-0.446 0.342,-0.454 0.308,-0.454C0.275,-0.454 0.245,-0.446 0.219,-0.431C0.193,-0.416 0.173,-0.395 0.158,-0.369C0.144,-0.342 0.136,-0.311 0.136,-0.276L0.136,-0.26C0.136,-0.224 0.144,-0.193 0.161,-0.166C0.177,-0.138 0.199,-0.117 0.229,-0.101C0.258,-0.086 0.292,-0.079 0.33,-0.079C0.361,-0.079 0.39,-0.084 0.416,-0.094C0.442,-0.105 0.464,-0.121 0.483,-0.142L0.536,-0.08C0.512,-0.052 0.482,-0.031 0.447,-0.016C0.411,-0.002 0.371,0.006 0.327,0.006Z" style="fill:white;fill-rule:nonzero;"/>
                    </g>
                    <g transform="matrix(268.436,0,0,268.436,10478.1,6120)">
                        <path d="M0.091,-0L0.091,-0.53L0.183,-0.53L0.183,-0.386L0.174,-0.422C0.189,-0.459 0.213,-0.487 0.248,-0.506C0.282,-0.526 0.325,-0.535 0.376,-0.535L0.376,-0.442C0.372,-0.442 0.368,-0.443 0.365,-0.443C0.361,-0.443 0.358,-0.443 0.354,-0.443C0.303,-0.443 0.262,-0.428 0.232,-0.397C0.202,-0.367 0.187,-0.322 0.187,-0.264L0.187,-0L0.091,-0Z" style="fill:white;fill-rule:nonzero;"/>
                    </g>
                    <g transform="matrix(268.436,0,0,268.436,10588.2,6120)">
                    </g>
                    <g transform="matrix(268.436,0,0,268.436,10660.3,6120)">
                        <path d="M0.318,0.006C0.265,0.006 0.218,-0.006 0.176,-0.029C0.135,-0.052 0.102,-0.084 0.078,-0.125C0.054,-0.166 0.042,-0.213 0.042,-0.265C0.042,-0.318 0.054,-0.365 0.078,-0.405C0.102,-0.446 0.135,-0.477 0.176,-0.5C0.217,-0.524 0.265,-0.535 0.318,-0.535C0.371,-0.535 0.418,-0.524 0.46,-0.501C0.501,-0.477 0.534,-0.446 0.558,-0.405C0.581,-0.365 0.593,-0.318 0.593,-0.265C0.593,-0.213 0.581,-0.166 0.558,-0.125C0.534,-0.084 0.501,-0.052 0.46,-0.029C0.418,-0.006 0.37,0.006 0.318,0.006ZM0.318,-0.079C0.352,-0.079 0.383,-0.086 0.41,-0.101C0.436,-0.117 0.458,-0.139 0.473,-0.167C0.489,-0.195 0.496,-0.228 0.496,-0.265C0.496,-0.303 0.489,-0.336 0.473,-0.364C0.458,-0.391 0.436,-0.413 0.41,-0.428C0.383,-0.444 0.352,-0.451 0.318,-0.451C0.284,-0.451 0.253,-0.444 0.227,-0.428C0.2,-0.413 0.179,-0.391 0.163,-0.364C0.147,-0.336 0.139,-0.303 0.139,-0.265C0.139,-0.228 0.147,-0.195 0.163,-0.167C0.179,-0.139 0.2,-0.117 0.227,-0.101C0.253,-0.086 0.284,-0.079 0.318,-0.079Z" style="fill:white;fill-rule:nonzero;"/>
                    </g>
                    <g transform="matrix(268.436,0,0,268.436,10830.8,6120)">
                        <path d="M0.105,-0L0.105,-0.577C0.105,-0.629 0.12,-0.67 0.15,-0.701C0.181,-0.732 0.224,-0.748 0.28,-0.748C0.301,-0.748 0.321,-0.745 0.34,-0.74C0.359,-0.735 0.375,-0.728 0.388,-0.717L0.359,-0.644C0.349,-0.652 0.338,-0.658 0.325,-0.662C0.312,-0.666 0.299,-0.669 0.285,-0.669C0.257,-0.669 0.235,-0.661 0.221,-0.645C0.206,-0.629 0.199,-0.606 0.199,-0.576L0.199,-0.505L0.201,-0.461L0.201,-0L0.105,-0ZM0.015,-0.451L0.015,-0.53L0.353,-0.53L0.353,-0.451L0.015,-0.451Z" style="fill:white;fill-rule:nonzero;"/>
                    </g>
                    <g transform="matrix(268.436,0,0,268.436,10925.6,6120)">
                    </g>
                </g>
            </g>
        </g>
    </g>
</svg>
