<?xml version="1.0" encoding="UTF-8" standalone="no"?>
<!DOCTYPE svg PUBLIC "-//W3C//DTD SVG 1.1//EN" "http://www.w3.org/Graphics/SVG/1.1/DTD/svg11.dtd">
<svg width="100%" height="100%" viewBox="0 0 224 62" version="1.1" xmlns="http://www.w3.org/2000/svg" xmlns:xlink="http://www.w3.org/1999/xlink" xml:space="preserve" xmlns:serif="http://www.serif.com/" style="fill-rule:evenodd;clip-rule:evenodd;stroke-linejoin:round;stroke-miterlimit:2;">
    <g transform="matrix(1,0,0,1,-357.614,-1910.08)">
        <g transform="matrix(0.461508,0,0,0.674193,-614.123,1866.11)">
            <g transform="matrix(2.16681,0,0,1,-2422.19,-65.7128)">
                <g transform="matrix(3.65565e-17,-1.08903,-0.553758,-4.08957e-17,2630.9,419.493)">
                    <path d="M205.001,947.32L205.002,895.049L182.231,895.049L182.231,947.321C182.231,955.328 184.63,963.007 188.9,968.669C193.17,974.331 198.962,977.511 205.001,977.511L235.269,977.51C235.269,969.504 232.87,961.824 228.6,956.162C224.33,950.5 218.538,947.32 212.499,947.32L205.001,947.32ZM264.952,925.239C264.952,917.232 262.553,909.553 258.283,903.891C254.013,898.229 248.221,895.049 242.182,895.049L211.914,895.049C211.914,903.056 214.313,910.736 218.583,916.398C222.853,922.059 228.645,925.24 234.684,925.24L242.182,925.24L242.181,977.511L264.952,977.511L264.952,925.239Z" style="fill:white;"/>
                </g>
                <g id="den" transform="matrix(1.68865,0,0,2.50613,4137.82,2128.48)">
                    <g transform="matrix(55.6323,0,0,55.6323,-1178.35,-761.068)">
                        <path d="M0.598,-0.647L0.598,0L0.465,0L0.448,-0.065C0.438,-0.051 0.426,-0.038 0.411,-0.027C0.397,-0.015 0.38,-0.005 0.36,0.002C0.34,0.009 0.316,0.012 0.289,0.012C0.244,0.012 0.204,0.001 0.168,-0.022C0.131,-0.045 0.103,-0.076 0.082,-0.116C0.061,-0.156 0.05,-0.201 0.05,-0.251C0.05,-0.302 0.061,-0.347 0.082,-0.387C0.103,-0.427 0.132,-0.459 0.169,-0.481C0.206,-0.504 0.247,-0.515 0.293,-0.515C0.328,-0.515 0.358,-0.509 0.384,-0.497C0.41,-0.485 0.432,-0.467 0.448,-0.444L0.448,-0.647L0.598,-0.647ZM0.328,-0.119C0.353,-0.119 0.375,-0.124 0.393,-0.136C0.412,-0.147 0.427,-0.163 0.438,-0.183C0.448,-0.203 0.453,-0.226 0.453,-0.252C0.453,-0.278 0.448,-0.301 0.438,-0.321C0.427,-0.341 0.412,-0.357 0.393,-0.368C0.374,-0.379 0.353,-0.385 0.328,-0.385C0.304,-0.385 0.283,-0.379 0.264,-0.368C0.245,-0.357 0.23,-0.341 0.219,-0.321C0.208,-0.301 0.203,-0.278 0.203,-0.253C0.203,-0.227 0.208,-0.204 0.219,-0.183C0.23,-0.163 0.245,-0.147 0.264,-0.136C0.283,-0.124 0.304,-0.119 0.328,-0.119Z" style="fill:white;fill-rule:nonzero;"/>
                    </g>
                    <g transform="matrix(55.6323,0,0,55.6323,-1144.4,-761.068)">
                        <path d="M0.313,0.012C0.261,0.012 0.215,0.001 0.176,-0.021C0.136,-0.042 0.106,-0.073 0.084,-0.111C0.061,-0.15 0.05,-0.195 0.05,-0.246C0.05,-0.298 0.061,-0.344 0.083,-0.385C0.105,-0.426 0.135,-0.457 0.175,-0.481C0.214,-0.504 0.26,-0.516 0.312,-0.516C0.363,-0.516 0.407,-0.505 0.445,-0.483C0.483,-0.461 0.513,-0.431 0.535,-0.393C0.556,-0.356 0.567,-0.312 0.567,-0.263C0.567,-0.256 0.567,-0.249 0.566,-0.24C0.566,-0.232 0.565,-0.223 0.564,-0.215L0.157,-0.215L0.157,-0.302L0.414,-0.302C0.413,-0.33 0.403,-0.353 0.384,-0.37C0.365,-0.387 0.341,-0.395 0.313,-0.395C0.292,-0.395 0.273,-0.39 0.255,-0.38C0.237,-0.37 0.224,-0.355 0.213,-0.335C0.203,-0.315 0.198,-0.29 0.198,-0.259L0.198,-0.229C0.198,-0.206 0.203,-0.185 0.212,-0.167C0.221,-0.149 0.234,-0.135 0.251,-0.125C0.268,-0.115 0.288,-0.11 0.311,-0.11C0.333,-0.11 0.351,-0.114 0.366,-0.123C0.38,-0.132 0.391,-0.144 0.399,-0.158L0.552,-0.158C0.543,-0.126 0.526,-0.097 0.504,-0.072C0.481,-0.046 0.454,-0.026 0.421,-0.011C0.389,0.004 0.352,0.012 0.313,0.012Z" style="fill:white;fill-rule:nonzero;"/>
                    </g>
                    <g transform="matrix(55.6323,0,0,55.6323,-1112.32,-761.068)">
                        <path d="M0.065,-0L0.065,-0.504L0.196,-0.504L0.208,-0.423C0.223,-0.451 0.245,-0.473 0.273,-0.49C0.301,-0.507 0.335,-0.516 0.375,-0.516C0.417,-0.516 0.452,-0.507 0.481,-0.489C0.51,-0.471 0.531,-0.445 0.546,-0.411C0.561,-0.378 0.569,-0.336 0.569,-0.288L0.569,-0L0.42,-0L0.42,-0.274C0.42,-0.311 0.412,-0.339 0.396,-0.359C0.381,-0.38 0.356,-0.39 0.322,-0.39C0.302,-0.39 0.284,-0.385 0.267,-0.375C0.251,-0.365 0.238,-0.352 0.229,-0.334C0.22,-0.316 0.215,-0.294 0.215,-0.269L0.215,-0L0.065,-0Z" style="fill:white;fill-rule:nonzero;"/>
                    </g>
                </g>
            </g>
        </g>
    </g>
</svg>
