<?xml version="1.0" encoding="UTF-8" standalone="no"?>
<!DOCTYPE svg PUBLIC "-//W3C//DTD SVG 1.1//EN" "http://www.w3.org/Graphics/SVG/1.1/DTD/svg11.dtd">
<svg width="100%" height="100%" viewBox="0 0 376 64" version="1.1" xmlns="http://www.w3.org/2000/svg" xmlns:xlink="http://www.w3.org/1999/xlink" xml:space="preserve" xmlns:serif="http://www.serif.com/" style="fill-rule:evenodd;clip-rule:evenodd;stroke-linejoin:round;stroke-miterlimit:2;">
    <g transform="matrix(1,0,0,1,-1608.35,-211.168)">
        <g id="Artboard6" transform="matrix(3.97131,0,0,0.734537,-4723.61,155.55)">
            <rect x="1594.43" y="75.718" width="94.624" height="87.069" style="fill:none;"/>
            <g transform="matrix(0.210446,0,0,1.13779,1284.31,-739.448)">
                <path d="M1511.26,789.349C1505.05,789.349 1499.62,787.951 1494.96,785.155C1490.31,782.359 1486.7,778.442 1484.13,773.403C1481.56,768.364 1480.27,762.478 1480.27,755.747C1480.27,749.005 1481.6,743.047 1484.25,737.872C1486.9,732.696 1490.7,728.64 1495.65,725.702C1500.6,722.764 1506.5,721.295 1513.34,721.295C1521.09,721.295 1527.51,723.148 1532.62,726.854C1537.73,730.56 1541.03,735.706 1542.52,742.292L1528.36,742.292C1527.4,739.373 1525.66,737.094 1523.12,735.455C1520.58,733.816 1517.29,732.996 1513.27,732.996C1509,732.996 1505.36,733.921 1502.36,735.771C1499.35,737.62 1497.07,740.247 1495.52,743.652C1493.97,747.056 1493.19,751.106 1493.19,755.802C1493.19,760.535 1493.97,764.573 1495.54,767.916C1497.1,771.26 1499.33,773.795 1502.24,775.522C1505.14,777.249 1508.58,778.112 1512.53,778.112C1518.3,778.112 1522.67,776.549 1525.63,773.423C1528.59,770.297 1530.36,766.278 1530.94,761.364L1514.77,761.364L1514.77,751.855L1543.7,751.855L1543.7,788.221L1532,788.221L1531.02,779.891C1529.63,781.909 1528.03,783.627 1526.19,785.046C1524.36,786.465 1522.22,787.537 1519.78,788.262C1517.33,788.987 1514.5,789.349 1511.26,789.349Z" style="fill:white;fill-rule:nonzero;"/>
                <path d="M1571.44,789.349C1567.6,789.349 1564.32,788.556 1561.6,786.969C1558.88,785.382 1556.8,783.026 1555.38,779.901C1553.95,776.776 1553.24,772.932 1553.24,768.37L1553.24,740.894L1565.87,740.894L1565.87,767.075C1565.87,770.874 1566.67,773.756 1568.27,775.721C1569.86,777.686 1572.32,778.669 1575.64,778.669C1577.75,778.669 1579.64,778.18 1581.29,777.201C1582.94,776.223 1584.24,774.809 1585.18,772.959C1586.13,771.109 1586.6,768.846 1586.6,766.171L1586.6,740.894L1599.29,740.894L1599.29,788.221L1588.13,788.221L1587.16,780.524C1585.74,783.197 1583.7,785.336 1581.03,786.941C1578.35,788.546 1575.16,789.349 1571.44,789.349Z" style="fill:white;fill-rule:nonzero;"/>
                <path d="M1608.3,788.221L1608.3,740.894L1620.98,740.894L1620.98,788.221L1608.3,788.221ZM1614.67,734.37C1612.37,734.37 1610.49,733.687 1609.04,732.323C1607.58,730.958 1606.85,729.254 1606.85,727.21C1606.85,725.129 1607.58,723.419 1609.04,722.081C1610.49,720.742 1612.37,720.073 1614.67,720.073C1616.98,720.073 1618.87,720.742 1620.34,722.081C1621.81,723.419 1622.54,725.129 1622.54,727.21C1622.54,729.254 1621.81,730.958 1620.34,732.323C1618.87,733.687 1616.98,734.37 1614.67,734.37Z" style="fill:white;fill-rule:nonzero;"/>
                <path d="M1651.65,789.349C1647.35,789.349 1643.5,788.28 1640.09,786.141C1636.67,784.002 1633.99,781.061 1632.04,777.318C1630.09,773.575 1629.11,769.337 1629.11,764.601C1629.11,759.803 1630.1,755.531 1632.07,751.787C1634.04,748.043 1636.76,745.103 1640.22,742.968C1643.69,740.833 1647.6,739.766 1651.98,739.766C1655.36,739.766 1658.33,740.391 1660.89,741.64C1663.44,742.89 1665.5,744.663 1667.04,746.959L1667.04,720.543L1679.72,720.543L1679.72,788.221L1668.45,788.221L1667.05,781.706C1666.09,783.07 1664.92,784.335 1663.52,785.502C1662.13,786.668 1660.46,787.601 1658.52,788.3C1656.58,789 1654.29,789.349 1651.65,789.349ZM1654.69,778.3C1657.19,778.3 1659.4,777.714 1661.31,776.543C1663.21,775.371 1664.7,773.75 1665.77,771.679C1666.84,769.608 1667.38,767.227 1667.38,764.537C1667.38,761.82 1666.84,759.43 1665.77,757.367C1664.7,755.305 1663.21,753.697 1661.3,752.544C1659.39,751.391 1657.17,750.815 1654.66,750.815C1652.26,750.815 1650.09,751.394 1648.16,752.551C1646.23,753.709 1644.72,755.319 1643.64,757.38C1642.56,759.441 1642.02,761.81 1642.02,764.487C1642.02,767.191 1642.56,769.582 1643.64,771.66C1644.72,773.738 1646.22,775.364 1648.15,776.538C1650.08,777.713 1652.26,778.3 1654.69,778.3Z" style="fill:white;fill-rule:nonzero;"/>
                <path d="M1711.67,789.349C1706.91,789.349 1702.71,788.326 1699.06,786.28C1695.42,784.233 1692.57,781.377 1690.52,777.712C1688.47,774.046 1687.45,769.808 1687.45,764.998C1687.45,760.058 1688.46,755.696 1690.48,751.912C1692.5,748.127 1695.33,745.157 1698.97,743C1702.61,740.844 1706.85,739.766 1711.69,739.766C1716.4,739.766 1720.5,740.789 1724.01,742.835C1727.52,744.882 1730.25,747.663 1732.2,751.18C1734.15,754.696 1735.12,758.692 1735.12,763.166C1735.12,763.793 1735.12,764.49 1735.1,765.256C1735.08,766.022 1735.02,766.825 1734.92,767.665L1696.51,767.665L1696.51,759.903L1722.3,759.903C1722.13,756.879 1721.07,754.476 1719.09,752.694C1717.12,750.911 1714.66,750.02 1711.73,750.02C1709.56,750.02 1707.58,750.519 1705.79,751.517C1703.99,752.516 1702.56,754.009 1701.52,755.998C1700.47,757.986 1699.94,760.505 1699.94,763.553L1699.94,766.295C1699.94,768.873 1700.43,771.114 1701.41,773.017C1702.38,774.921 1703.75,776.391 1705.5,777.428C1707.26,778.465 1709.28,778.983 1711.56,778.983C1713.93,778.983 1715.87,778.492 1717.38,777.509C1718.89,776.527 1720.05,775.231 1720.85,773.624L1733.77,773.624C1732.89,776.576 1731.41,779.241 1729.34,781.619C1727.28,783.998 1724.74,785.881 1721.75,787.268C1718.76,788.655 1715.4,789.349 1711.67,789.349Z" style="fill:white;fill-rule:nonzero;"/>
                <path d="M1763.16,789.349C1758.86,789.349 1755.01,788.28 1751.6,786.141C1748.18,784.002 1745.5,781.061 1743.55,777.318C1741.6,773.575 1740.62,769.337 1740.62,764.601C1740.62,759.803 1741.61,755.531 1743.58,751.787C1745.55,748.043 1748.27,745.103 1751.73,742.968C1755.2,740.833 1759.12,739.766 1763.49,739.766C1766.87,739.766 1769.84,740.391 1772.4,741.64C1774.96,742.89 1777.01,744.663 1778.55,746.959L1778.55,720.543L1791.23,720.543L1791.23,788.221L1779.96,788.221L1778.56,781.706C1777.6,783.07 1776.43,784.335 1775.03,785.502C1773.64,786.668 1771.97,787.601 1770.03,788.3C1768.09,789 1765.8,789.349 1763.16,789.349ZM1766.2,778.3C1768.71,778.3 1770.91,777.714 1772.82,776.543C1774.73,775.371 1776.21,773.75 1777.28,771.679C1778.35,769.608 1778.89,767.227 1778.89,764.537C1778.89,761.82 1778.35,759.43 1777.28,757.367C1776.21,755.305 1774.72,753.697 1772.81,752.544C1770.9,751.391 1768.69,750.815 1766.17,750.815C1763.77,750.815 1761.6,751.394 1759.67,752.551C1757.74,753.709 1756.23,755.319 1755.15,757.38C1754.07,759.441 1753.53,761.81 1753.53,764.487C1753.53,767.191 1754.07,769.582 1755.15,771.66C1756.23,773.738 1757.73,775.364 1759.66,776.538C1761.59,777.713 1763.77,778.3 1766.2,778.3Z" style="fill:white;fill-rule:nonzero;"/>
                <path d="M1831.07,789.349C1824.66,789.349 1819.03,787.914 1814.15,785.044C1809.28,782.174 1805.46,778.186 1802.69,773.079C1799.93,767.972 1798.55,762.053 1798.55,755.322C1798.55,748.617 1799.93,742.711 1802.69,737.604C1805.46,732.496 1809.28,728.502 1814.15,725.619C1819.03,722.736 1824.66,721.295 1831.07,721.295C1837.52,721.295 1843.2,722.736 1848.1,725.619C1852.99,728.502 1856.8,732.496 1859.52,737.604C1862.25,742.711 1863.61,748.617 1863.61,755.322C1863.61,762.053 1862.25,767.972 1859.52,773.079C1856.8,778.186 1852.99,782.174 1848.1,785.044C1843.2,787.914 1837.52,789.349 1831.07,789.349ZM1831.09,777.93C1835.08,777.93 1838.54,777.014 1841.47,775.183C1844.41,773.352 1846.67,770.746 1848.28,767.366C1849.88,763.985 1850.68,759.97 1850.68,755.322C1850.68,750.637 1849.88,746.613 1848.28,743.251C1846.67,739.888 1844.41,737.298 1841.47,735.48C1838.54,733.662 1835.08,732.753 1831.09,732.753C1827.13,732.753 1823.68,733.662 1820.74,735.48C1817.8,737.298 1815.52,739.888 1813.9,743.251C1812.28,746.613 1811.47,750.637 1811.47,755.322C1811.47,759.97 1812.28,763.985 1813.9,767.366C1815.52,770.746 1817.8,773.352 1820.74,775.183C1823.68,777.014 1827.13,777.93 1831.09,777.93Z" style="fill:white;fill-rule:nonzero;"/>
                <path d="M1870.55,788.221L1870.55,740.894L1881.71,740.894L1882.65,748.581C1884.09,745.915 1886.15,743.779 1888.82,742.174C1891.49,740.568 1894.68,739.766 1898.4,739.766C1902.29,739.766 1905.58,740.577 1908.27,742.201C1910.97,743.824 1913.03,746.201 1914.46,749.333C1915.89,752.464 1916.6,756.309 1916.6,760.868L1916.6,788.221L1903.98,788.221L1903.98,762.044C1903.98,758.339 1903.18,755.48 1901.58,753.466C1899.98,751.452 1897.52,750.445 1894.19,750.445C1892.1,750.445 1890.23,750.941 1888.56,751.933C1886.9,752.925 1885.59,754.347 1884.65,756.198C1883.7,758.049 1883.23,760.304 1883.23,762.962L1883.23,788.221L1870.55,788.221Z" style="fill:white;fill-rule:nonzero;"/>
            </g>
        </g>
    </g>
</svg>
