<?xml version="1.0" encoding="UTF-8" standalone="no"?>
<!DOCTYPE svg PUBLIC "-//W3C//DTD SVG 1.1//EN" "http://www.w3.org/Graphics/SVG/1.1/DTD/svg11.dtd">
<svg width="100%" height="100%" viewBox="0 0 77 69" version="1.1" xmlns="http://www.w3.org/2000/svg" xmlns:xlink="http://www.w3.org/1999/xlink" xml:space="preserve" xmlns:serif="http://www.serif.com/" style="fill-rule:evenodd;clip-rule:evenodd;stroke-linejoin:round;stroke-miterlimit:2;">
    <g transform="matrix(1,0,0,1,-1608.35,-85.6369)">
        <g id="Artboard6" transform="matrix(0.813062,0,0,0.782624,311.982,26.3782)">
            <rect x="1594.43" y="75.718" width="94.624" height="87.069" style="fill:none;"/>
            <g transform="matrix(1.02523,0,0,1.15182,-2724.32,-515.832)">
                <g transform="matrix(1.52549e-16,-0.799675,1.07639,4.5829e-17,3071.08,2484.05)">
                    <path d="M2374.07,1064.73C2383.68,1064.73 2392.89,1067.8 2399.68,1073.26C2406.47,1078.71 2410.29,1086.11 2410.29,1093.83C2410.29,1116.2 2410.29,1143.32 2410.29,1143.32L2410.29,1143.32C2400.68,1143.32 2391.47,1140.25 2384.68,1134.8C2377.89,1129.34 2374.07,1121.94 2374.07,1114.22C2374.07,1091.85 2374.07,1064.73 2374.07,1064.73L2374.07,1064.73Z"/>
                </g>
                <g transform="matrix(1.52549e-16,-0.799675,1.07639,4.5829e-17,3071.08,2444.54)">
                    <path d="M2374.07,1064.73C2383.68,1064.73 2392.89,1067.8 2399.68,1073.26C2406.47,1078.71 2410.29,1086.11 2410.29,1093.83C2410.29,1116.2 2410.29,1143.32 2410.29,1143.32L2410.29,1143.32C2400.68,1143.32 2391.47,1140.25 2384.68,1134.8C2377.89,1129.34 2374.07,1121.94 2374.07,1114.22C2374.07,1091.85 2374.07,1064.73 2374.07,1064.73L2374.07,1064.73Z"/>
                </g>
            </g>
        </g>
    </g>
</svg>
