<?xml version="1.0" encoding="UTF-8" standalone="no"?>
<!DOCTYPE svg PUBLIC "-//W3C//DTD SVG 1.1//EN" "http://www.w3.org/Graphics/SVG/1.1/DTD/svg11.dtd">
<svg width="100%" height="100%" viewBox="0 0 478 78" version="1.1" xmlns="http://www.w3.org/2000/svg" xmlns:xlink="http://www.w3.org/1999/xlink" xml:space="preserve" xmlns:serif="http://www.serif.com/" style="fill-rule:evenodd;clip-rule:evenodd;stroke-linejoin:round;stroke-miterlimit:2;">
    <g transform="matrix(1,0,0,1,-1784.5,-3743.53)">
        <g transform="matrix(0.872345,0,0,0.872345,621.253,114.881)">
            <g transform="matrix(0.869453,-1.71488e-16,5.38992e-16,2.37914,170.525,-6108.56)">
                <path d="M1337.57,4337.37L1337.57,4332.31C1337.57,4327.97 1342.29,4323.8 1350.7,4320.72C1359.11,4317.65 1370.52,4315.92 1382.41,4315.92L1439.95,4315.92L1439.95,4336.49C1439.95,4340.84 1435.22,4345.01 1426.81,4348.08C1418.4,4351.15 1406.99,4352.88 1395.1,4352.88L1337.57,4352.88L1337.57,4344.58C1343.85,4344.88 1350.12,4344.88 1356.38,4344.55C1370.96,4343.79 1385.66,4341.25 1400.26,4336.44L1400.26,4342.33L1415.99,4342.33L1415.99,4325.07L1371.5,4325.07L1371.5,4331.17L1387.06,4331.17C1375.89,4334.84 1364.8,4336.89 1353.6,4337.48C1348.24,4337.76 1342.9,4337.71 1337.57,4337.37Z" style="fill:white;"/>
            </g>
            <g transform="matrix(1.14717,0,0,1.14717,-71.6665,-518.418)">
                <rect x="1327.96" y="4081.18" width="17.853" height="73.333" style="fill:white;fill-rule:nonzero;"/>
                <g transform="matrix(1,0,0,1,-0.871707,0)">
                    <path d="M1394.26,4095.6C1401.08,4095.6 1406.53,4097.81 1410.6,4102.23C1414.67,4106.65 1416.71,4112.73 1416.71,4120.46L1416.71,4154.51L1398.96,4154.51L1398.96,4122.86C1398.96,4118.96 1397.95,4115.93 1395.93,4113.77C1393.91,4111.61 1391.2,4110.53 1387.79,4110.53C1384.38,4110.53 1381.66,4111.61 1379.64,4113.77C1377.62,4115.93 1376.62,4118.96 1376.62,4122.86L1376.62,4154.51L1358.76,4154.51L1358.76,4096.22L1376.62,4096.22L1376.62,4103.95C1378.43,4101.38 1380.86,4099.34 1383.92,4097.84C1386.99,4096.35 1390.43,4095.6 1394.26,4095.6Z" style="fill:white;fill-rule:nonzero;"/>
                </g>
                <g transform="matrix(1,0,0,1,-1.74341,0)">
                    <path d="M1484.05,4124.43C1484.05,4126.1 1483.94,4127.84 1483.73,4129.65L1443.33,4129.65C1443.61,4133.27 1444.77,4136.04 1446.83,4137.96C1448.88,4139.87 1451.4,4140.83 1454.4,4140.83C1458.85,4140.83 1461.95,4138.95 1463.69,4135.19L1482.69,4135.19C1481.72,4139.02 1479.96,4142.47 1477.42,4145.53C1474.88,4148.59 1471.69,4151 1467.87,4152.74C1464.04,4154.48 1459.76,4155.35 1455.02,4155.35C1449.32,4155.35 1444.24,4154.13 1439.78,4151.69C1435.33,4149.26 1431.85,4145.77 1429.34,4141.25C1426.83,4136.72 1425.58,4131.43 1425.58,4125.37C1425.58,4119.31 1426.82,4114.02 1429.29,4109.49C1431.76,4104.96 1435.22,4101.48 1439.68,4099.04C1444.13,4096.61 1449.25,4095.39 1455.02,4095.39C1460.66,4095.39 1465.67,4096.57 1470.06,4098.94C1474.44,4101.31 1477.87,4104.69 1480.34,4109.07C1482.81,4113.46 1484.05,4118.58 1484.05,4124.43ZM1465.78,4119.73C1465.78,4116.66 1464.73,4114.23 1462.64,4112.41C1460.56,4110.6 1457.95,4109.7 1454.81,4109.7C1451.82,4109.7 1449.3,4110.57 1447.25,4112.31C1445.19,4114.05 1443.92,4116.52 1443.43,4119.73L1465.78,4119.73Z" style="fill:white;fill-rule:nonzero;"/>
                </g>
                <g transform="matrix(1,0,0,1,-1.74341,0)">
                    <path d="M1511.3,4105.94C1513.38,4102.73 1516,4100.21 1519.13,4098.36C1522.26,4096.52 1525.74,4095.6 1529.57,4095.6L1529.57,4114.5L1524.66,4114.5C1520.21,4114.5 1516.87,4115.46 1514.64,4117.38C1512.41,4119.29 1511.3,4122.65 1511.3,4127.46L1511.3,4154.51L1493.44,4154.51L1493.44,4096.22L1511.3,4096.22L1511.3,4105.94Z" style="fill:white;fill-rule:nonzero;"/>
                </g>
                <g transform="matrix(1,0,0,1,-0.871707,0)">
                    <path d="M1593.04,4124.43C1593.04,4126.1 1592.94,4127.84 1592.73,4129.65L1552.33,4129.65C1552.61,4133.27 1553.77,4136.04 1555.83,4137.96C1557.88,4139.87 1560.4,4140.83 1563.39,4140.83C1567.85,4140.83 1570.95,4138.95 1572.69,4135.19L1591.69,4135.19C1590.71,4139.02 1588.95,4142.47 1586.41,4145.53C1583.87,4148.59 1580.69,4151 1576.86,4152.74C1573.03,4154.48 1568.75,4155.35 1564.02,4155.35C1558.31,4155.35 1553.23,4154.13 1548.78,4151.69C1544.32,4149.26 1540.84,4145.77 1538.34,4141.25C1535.83,4136.72 1534.58,4131.43 1534.58,4125.37C1534.58,4119.31 1535.81,4114.02 1538.29,4109.49C1540.76,4104.96 1544.22,4101.48 1548.67,4099.04C1553.13,4096.61 1558.24,4095.39 1564.02,4095.39C1569.66,4095.39 1574.67,4096.57 1579.05,4098.94C1583.44,4101.31 1586.87,4104.69 1589.34,4109.07C1591.81,4113.46 1593.04,4118.58 1593.04,4124.43ZM1574.77,4119.73C1574.77,4116.66 1573.73,4114.23 1571.64,4112.41C1569.55,4110.6 1566.94,4109.7 1563.81,4109.7C1560.82,4109.7 1558.3,4110.57 1556.24,4112.31C1554.19,4114.05 1552.92,4116.52 1552.43,4119.73L1574.77,4119.73Z" style="fill:white;fill-rule:nonzero;"/>
                </g>
                <g transform="matrix(1,0,0,1,-1.74341,0)">
                    <path d="M1634.91,4139.37L1634.91,4154.51L1625.83,4154.51C1619.35,4154.51 1614.31,4152.93 1610.69,4149.76C1607.07,4146.59 1605.26,4141.42 1605.26,4134.25L1605.26,4111.06L1598.16,4111.06L1598.16,4096.22L1605.26,4096.22L1605.26,4082.02L1623.11,4082.02L1623.11,4096.22L1634.81,4096.22L1634.81,4111.06L1623.11,4111.06L1623.11,4134.46C1623.11,4136.2 1623.53,4137.45 1624.37,4138.22C1625.2,4138.98 1626.59,4139.37 1628.54,4139.37L1634.91,4139.37Z" style="fill:white;fill-rule:nonzero;"/>
                </g>
                <path d="M1671.35,4155.35C1665.64,4155.35 1660.51,4154.13 1655.95,4151.69C1651.39,4149.26 1647.8,4145.77 1645.19,4141.25C1642.58,4136.72 1641.28,4131.43 1641.28,4125.37C1641.28,4119.38 1642.6,4114.1 1645.25,4109.54C1647.89,4104.98 1651.51,4101.48 1656.1,4099.04C1660.7,4096.61 1665.85,4095.39 1671.56,4095.39C1677.26,4095.39 1682.41,4096.61 1687.01,4099.04C1691.6,4101.48 1695.22,4104.98 1697.87,4109.54C1700.51,4114.1 1701.83,4119.38 1701.83,4125.37C1701.83,4131.36 1700.49,4136.63 1697.81,4141.19C1695.13,4145.76 1691.48,4149.26 1686.85,4151.69C1682.22,4154.13 1677.05,4155.35 1671.35,4155.35ZM1671.35,4139.89C1674.76,4139.89 1677.66,4138.64 1680.07,4136.13C1682.47,4133.62 1683.67,4130.03 1683.67,4125.37C1683.67,4120.7 1682.5,4117.12 1680.17,4114.61C1677.84,4112.1 1674.97,4110.85 1671.56,4110.85C1668.08,4110.85 1665.19,4112.08 1662.89,4114.56C1660.59,4117.03 1659.44,4120.63 1659.44,4125.37C1659.44,4130.03 1660.58,4133.62 1662.84,4136.13C1665.1,4138.64 1667.94,4139.89 1671.35,4139.89Z" style="fill:white;fill-rule:nonzero;"/>
            </g>
        </g>
    </g>
</svg>
