<?xml version="1.0" encoding="UTF-8" standalone="no"?>
<!DOCTYPE svg PUBLIC "-//W3C//DTD SVG 1.1//EN" "http://www.w3.org/Graphics/SVG/1.1/DTD/svg11.dtd">
<svg width="100%" height="100%" viewBox="0 0 192 63" version="1.1" xmlns="http://www.w3.org/2000/svg" xmlns:xlink="http://www.w3.org/1999/xlink" xml:space="preserve" xmlns:serif="http://www.serif.com/" style="fill-rule:evenodd;clip-rule:evenodd;stroke-linejoin:round;stroke-miterlimit:2;">
    <g transform="matrix(1,0,0,1,-357.614,-2020.85)">
        <g transform="matrix(0.461508,0,0,0.674193,-614.123,1866.11)">
            <g transform="matrix(2.16681,0,0,1,-3068.33,98.5696)">
                <g transform="matrix(3.65565e-17,-1.08903,-0.553758,-4.08957e-17,2929.1,419.493)">
                    <path d="M205.001,947.32L205.002,895.049L182.231,895.049L182.231,947.321C182.231,955.328 184.63,963.007 188.9,968.669C193.17,974.331 198.962,977.511 205.001,977.511L235.269,977.51C235.269,969.504 232.87,961.824 228.6,956.162C224.33,950.5 218.538,947.32 212.499,947.32L205.001,947.32ZM264.952,925.239C264.952,917.232 262.553,909.553 258.283,903.891C254.013,898.229 248.221,895.049 242.182,895.049L211.914,895.049C211.914,903.056 214.313,910.736 218.583,916.398C222.853,922.059 228.645,925.24 234.684,925.24L242.182,925.24L242.181,977.511L264.952,977.511L264.952,925.239Z" style="fill:white;"/>
                </g>
                <g id="lab" transform="matrix(1.68865,0,0,2.50613,4436.57,2128.75)">
                    <g transform="matrix(55.6323,0,0,55.6323,-1178.35,-761.068)">
                        <rect x="0.065" y="-0.647" width="0.15" height="0.647" style="fill:white;fill-rule:nonzero;"/>
                    </g>
                    <g transform="matrix(55.6323,0,0,55.6323,-1164.6,-761.068)">
                        <path d="M0.237,0.012C0.195,0.012 0.16,0.005 0.133,-0.008C0.105,-0.022 0.085,-0.04 0.072,-0.063C0.058,-0.086 0.052,-0.111 0.052,-0.139C0.052,-0.169 0.059,-0.195 0.074,-0.218C0.09,-0.242 0.113,-0.26 0.145,-0.273C0.177,-0.287 0.217,-0.294 0.266,-0.294L0.388,-0.294C0.388,-0.317 0.385,-0.336 0.38,-0.35C0.374,-0.365 0.365,-0.376 0.352,-0.383C0.339,-0.391 0.322,-0.394 0.3,-0.394C0.277,-0.394 0.257,-0.39 0.241,-0.38C0.225,-0.37 0.215,-0.356 0.211,-0.336L0.067,-0.336C0.07,-0.372 0.082,-0.403 0.102,-0.43C0.122,-0.457 0.15,-0.478 0.184,-0.493C0.218,-0.508 0.257,-0.516 0.301,-0.516C0.349,-0.516 0.39,-0.508 0.426,-0.492C0.462,-0.477 0.489,-0.454 0.509,-0.424C0.528,-0.394 0.538,-0.357 0.538,-0.312L0.538,-0L0.413,-0L0.395,-0.073C0.388,-0.061 0.379,-0.049 0.369,-0.039C0.359,-0.028 0.347,-0.019 0.334,-0.012C0.321,-0.004 0.306,0.002 0.29,0.006C0.274,0.01 0.256,0.012 0.237,0.012ZM0.274,-0.102C0.29,-0.102 0.304,-0.105 0.316,-0.11C0.328,-0.115 0.338,-0.123 0.347,-0.132C0.356,-0.141 0.363,-0.152 0.369,-0.165C0.374,-0.177 0.378,-0.191 0.381,-0.205L0.381,-0.206L0.284,-0.206C0.268,-0.206 0.254,-0.204 0.243,-0.199C0.232,-0.195 0.223,-0.189 0.218,-0.181C0.213,-0.173 0.21,-0.163 0.21,-0.153C0.21,-0.142 0.213,-0.132 0.218,-0.125C0.224,-0.117 0.232,-0.112 0.241,-0.108C0.251,-0.104 0.262,-0.102 0.274,-0.102Z" style="fill:white;fill-rule:nonzero;"/>
                    </g>
                    <g transform="matrix(55.6323,0,0,55.6323,-1133.94,-761.068)">
                        <path d="M0.215,-0.647L0.215,-0.438C0.231,-0.461 0.251,-0.479 0.277,-0.494C0.302,-0.508 0.334,-0.515 0.371,-0.515C0.417,-0.515 0.458,-0.504 0.495,-0.481C0.531,-0.458 0.559,-0.427 0.581,-0.387C0.602,-0.348 0.613,-0.302 0.613,-0.251C0.613,-0.201 0.602,-0.156 0.581,-0.116C0.56,-0.076 0.531,-0.045 0.495,-0.022C0.459,0.001 0.418,0.012 0.372,0.012C0.347,0.012 0.325,0.009 0.305,0.003C0.286,-0.003 0.268,-0.012 0.253,-0.022C0.238,-0.033 0.226,-0.046 0.215,-0.06L0.198,0L0.065,0L0.065,-0.647L0.215,-0.647ZM0.335,-0.119C0.359,-0.119 0.381,-0.124 0.399,-0.136C0.418,-0.147 0.433,-0.163 0.444,-0.182C0.454,-0.202 0.46,-0.225 0.46,-0.251C0.46,-0.277 0.454,-0.3 0.444,-0.32C0.433,-0.34 0.418,-0.356 0.399,-0.368C0.381,-0.379 0.359,-0.385 0.335,-0.385C0.31,-0.385 0.289,-0.379 0.27,-0.368C0.251,-0.356 0.236,-0.34 0.225,-0.321C0.215,-0.301 0.209,-0.278 0.209,-0.251C0.209,-0.226 0.215,-0.203 0.225,-0.183C0.236,-0.163 0.251,-0.147 0.27,-0.136C0.289,-0.124 0.31,-0.119 0.335,-0.119Z" style="fill:white;fill-rule:nonzero;"/>
                    </g>
                </g>
            </g>
        </g>
    </g>
</svg>
