<?xml version="1.0" encoding="UTF-8" standalone="no"?>
<!DOCTYPE svg PUBLIC "-//W3C//DTD SVG 1.1//EN" "http://www.w3.org/Graphics/SVG/1.1/DTD/svg11.dtd">
<svg width="100%" height="100%" viewBox="0 0 388 72" version="1.1" xmlns="http://www.w3.org/2000/svg" xmlns:xlink="http://www.w3.org/1999/xlink" xml:space="preserve" xmlns:serif="http://www.serif.com/" style="fill-rule:evenodd;clip-rule:evenodd;stroke-linejoin:round;stroke-miterlimit:2;">
    <g transform="matrix(1,0,0,1,-114.083,-1665.49)">
        <g transform="matrix(1,0,0,0.674193,-2046.84,1571.46)">
            <g transform="matrix(1.16069,0,0,1.16069,-301.553,3.13061)">
                <g transform="matrix(94.1297,-2.29222e-30,-1.5454e-30,139.618,2237.42,207.566)">
                    <path d="M0.065,-0L0.065,-0.504L0.196,-0.504L0.208,-0.423C0.223,-0.451 0.245,-0.474 0.273,-0.491C0.301,-0.507 0.335,-0.516 0.375,-0.516C0.417,-0.516 0.452,-0.507 0.481,-0.489C0.51,-0.471 0.532,-0.445 0.547,-0.412C0.562,-0.378 0.569,-0.337 0.569,-0.288L0.569,-0L0.42,-0L0.42,-0.274C0.42,-0.311 0.412,-0.339 0.397,-0.36C0.381,-0.38 0.356,-0.39 0.322,-0.39C0.302,-0.39 0.284,-0.385 0.268,-0.376C0.251,-0.366 0.238,-0.352 0.229,-0.334C0.22,-0.316 0.215,-0.294 0.215,-0.269L0.215,-0L0.065,-0Z" style="fill:white;fill-rule:nonzero;"/>
                </g>
                <g transform="matrix(-94.1297,1.70983e-14,-1.15276e-14,-139.618,2239.4,137.198)">
                    <path d="M0.065,-0L0.065,-0.504L0.196,-0.504L0.208,-0.423C0.223,-0.451 0.245,-0.474 0.273,-0.491C0.301,-0.507 0.335,-0.516 0.375,-0.516C0.417,-0.516 0.452,-0.507 0.481,-0.489C0.51,-0.471 0.532,-0.445 0.547,-0.412C0.562,-0.378 0.569,-0.337 0.569,-0.288L0.569,-0L0.42,-0L0.42,-0.274C0.42,-0.311 0.412,-0.339 0.397,-0.36C0.381,-0.38 0.356,-0.39 0.322,-0.39C0.302,-0.39 0.284,-0.385 0.268,-0.376C0.251,-0.366 0.238,-0.352 0.229,-0.334C0.22,-0.316 0.215,-0.294 0.215,-0.269L0.215,-0L0.065,-0Z" style="fill:white;fill-rule:nonzero;"/>
                </g>
                <g transform="matrix(94.1297,-2.29222e-30,-1.5454e-30,139.618,2297.77,207.566)">
                    <path d="M0.032,-0L0.032,-0.12L0.279,-0.38L0.035,-0.38L0.035,-0.504L0.451,-0.504L0.451,-0.384L0.202,-0.124L0.456,-0.124L0.456,-0L0.032,-0Z" style="fill:white;fill-rule:nonzero;"/>
                </g>
                <g transform="matrix(94.1297,-2.29222e-30,-1.5454e-30,139.618,2342.55,207.566)">
                    <path d="M0.313,0.012C0.261,0.012 0.215,0.001 0.176,-0.021C0.137,-0.042 0.106,-0.073 0.084,-0.112C0.061,-0.151 0.05,-0.195 0.05,-0.246C0.05,-0.298 0.061,-0.344 0.083,-0.385C0.105,-0.426 0.136,-0.458 0.175,-0.481C0.214,-0.504 0.26,-0.516 0.312,-0.516C0.363,-0.516 0.407,-0.505 0.445,-0.483C0.483,-0.461 0.513,-0.431 0.535,-0.394C0.556,-0.356 0.567,-0.312 0.567,-0.263C0.567,-0.256 0.567,-0.249 0.567,-0.241C0.566,-0.232 0.565,-0.224 0.564,-0.215L0.157,-0.215L0.157,-0.302L0.414,-0.302C0.413,-0.33 0.403,-0.353 0.384,-0.37C0.365,-0.387 0.341,-0.395 0.313,-0.395C0.292,-0.395 0.272,-0.39 0.255,-0.38C0.238,-0.37 0.224,-0.355 0.214,-0.335C0.203,-0.315 0.198,-0.29 0.198,-0.259L0.198,-0.229C0.198,-0.206 0.203,-0.185 0.212,-0.167C0.221,-0.149 0.234,-0.135 0.251,-0.125C0.268,-0.115 0.288,-0.11 0.311,-0.11C0.333,-0.11 0.351,-0.115 0.366,-0.124C0.38,-0.133 0.391,-0.144 0.399,-0.158L0.552,-0.158C0.543,-0.126 0.527,-0.097 0.504,-0.072C0.481,-0.046 0.454,-0.025 0.421,-0.011C0.388,0.005 0.352,0.012 0.313,0.012Z" style="fill:white;fill-rule:nonzero;"/>
                </g>
                <g transform="matrix(3.65565e-17,-1.08903,-0.553758,-4.08957e-17,2662.87,406.005)">
                    <path d="M205.001,947.32L205.002,895.049L182.231,895.049L182.231,947.321C182.231,955.328 184.63,963.007 188.9,968.669C193.17,974.331 198.962,977.511 205.001,977.511L235.269,977.51C235.269,969.504 232.87,961.824 228.6,956.162C224.33,950.5 218.538,947.32 212.499,947.32L205.001,947.32ZM264.952,925.239C264.952,917.232 262.553,909.553 258.283,903.891C254.013,898.229 248.221,895.049 242.182,895.049L211.914,895.049C211.914,903.056 214.313,910.736 218.583,916.398C222.853,922.059 228.645,925.24 234.684,925.24L242.182,925.24L242.181,977.511L264.952,977.511L264.952,925.239Z" style="fill:white;"/>
                </g>
                <g transform="matrix(1.13985,-2.77573e-32,-1.87138e-32,1.69069,693.44,-103.947)">
                    <path d="M1501.47,130.959L1513.86,130.959L1513.86,142.686L1524.51,142.686L1524.51,153.008L1513.86,153.008L1513.86,169.277C1513.86,170.929 1514.23,172.098 1514.97,172.787C1515.71,173.475 1516.99,173.819 1518.81,173.819L1524.51,173.819L1524.51,184.307L1516.66,184.307C1513.69,184.307 1511.05,183.825 1508.74,182.861C1506.42,181.898 1504.63,180.315 1503.37,178.113C1502.1,175.911 1501.47,172.91 1501.47,169.112L1501.47,130.959Z" style="fill:white;"/>
                </g>
                <g transform="matrix(0.690649,0,0,1.18912,2104.56,-1157.32)">
                    <rect x="490.225" y="1132.97" width="17.341" height="14.911" style="fill:white;"/>
                </g>
            </g>
        </g>
    </g>
</svg>
