<?xml version="1.0" encoding="UTF-8" standalone="no"?>
<!DOCTYPE svg PUBLIC "-//W3C//DTD SVG 1.1//EN" "http://www.w3.org/Graphics/SVG/1.1/DTD/svg11.dtd">
<svg width="100%" height="100%" viewBox="0 0 267 64" version="1.1" xmlns="http://www.w3.org/2000/svg" xmlns:xlink="http://www.w3.org/1999/xlink" xml:space="preserve" xmlns:serif="http://www.serif.com/" style="fill-rule:evenodd;clip-rule:evenodd;stroke-linejoin:round;stroke-miterlimit:2;">
    <g transform="matrix(1,0,0,1,0,-4152.17)">
        <g id="Artboard5" transform="matrix(0.970618,0,0,0.861395,415.67,583.481)">
            <rect x="-428.253" y="4142.92" width="274.215" height="73.363" style="fill:none;"/>
            <g transform="matrix(1.00272,0,0,1.12986,-311.876,951.417)">
                <g transform="matrix(2.15474,-1.85015e-32,1.85015e-32,2.15474,-4192.68,-124.961)">
                    <g transform="matrix(28,0,0,28,2014.1,1396.33)">
                    </g>
                    <text x="1919.66px" y="1396.33px" style="font-family:'DMSans-9ptRegular_Bold', 'DM Sans';font-size:28px;fill:white;">Ne<tspan x="1954.32px " y="1396.33px ">x</tspan>tUP</text>
                </g>
                <g transform="matrix(0.338823,0,0,0.485407,-1255.72,2876.93)">
                    <path d="M3394.07,-90.982C3394.05,-91.325 3394.04,-91.67 3394.04,-92.015L3442.28,-92.016C3451.9,-92.016 3461.13,-89.37 3467.93,-84.661C3474.74,-79.952 3478.56,-73.565 3478.56,-66.905L3478.56,-60.236C3478.56,-53.577 3474.74,-47.191 3467.93,-42.482C3465.22,-40.604 3462.12,-39.055 3458.77,-37.871L3460.6,-37.871C3470.22,-37.871 3479.45,-35.225 3486.26,-30.516C3493.06,-25.807 3496.88,-19.419 3496.88,-12.759L3496.88,1.096C3496.88,5.849 3494.16,10.408 3489.3,13.769C3484.44,17.13 3477.86,19.018 3470.99,19.018L3460.6,19.018L3460.6,17.441L3460.6,-11.182L3453.38,-11.182L3448.65,-11.182L3442.28,-11.182L3442,-11.182L3430.33,-11.182C3420.7,-11.182 3411.47,-13.827 3404.67,-18.536C3397.87,-23.246 3394.04,-29.633 3394.04,-36.293L3394.05,-36.293C3394.05,-36.474 3394.04,-36.655 3394.04,-36.836L3394.07,-36.836C3394.05,-37.18 3394.04,-37.525 3394.04,-37.87L3405.71,-37.87L3412.37,-37.87L3417.09,-37.87L3442.28,-37.87L3442.28,-65.327L3430.33,-65.327C3420.7,-65.327 3411.47,-67.973 3404.67,-72.682C3397.87,-77.391 3394.04,-83.779 3394.04,-90.439L3394.05,-90.439C3394.05,-90.619 3394.04,-90.8 3394.04,-90.982L3394.07,-90.982Z" style="fill:white;"/>
                </g>
            </g>
        </g>
    </g>
</svg>
