<?xml version="1.0" encoding="UTF-8" standalone="no"?>
<!DOCTYPE svg PUBLIC "-//W3C//DTD SVG 1.1//EN" "http://www.w3.org/Graphics/SVG/1.1/DTD/svg11.dtd">
<svg width="100%" height="100%" viewBox="0 0 267 64" version="1.1" xmlns="http://www.w3.org/2000/svg" xmlns:xlink="http://www.w3.org/1999/xlink" xml:space="preserve" xmlns:serif="http://www.serif.com/" style="fill-rule:evenodd;clip-rule:evenodd;stroke-linejoin:round;stroke-miterlimit:2;">
    <g transform="matrix(1,0,0,1,0,-4223.32)">
        <g id="Artboard5" transform="matrix(0.970618,0,0,0.861395,415.67,654.636)">
            <rect x="-428.253" y="4142.92" width="274.215" height="73.363" style="fill:none;"/>
            <g transform="matrix(1.00272,0,0,1.12986,-311.876,953.739)">
                <g transform="matrix(1.00939,0,0,1.00939,1.59665,-23.6692)">
                    <path d="M-4.858,2867.32C-4.766,2868.6 -4.466,2869.73 -3.958,2870.72C-3.337,2871.93 -2.468,2872.87 -1.351,2873.52C-0.233,2874.18 1.052,2874.51 2.504,2874.51C4.008,2874.51 5.241,2874.2 6.203,2873.58C7.165,2872.95 7.901,2872.13 8.412,2871.11L16.631,2871.11C16.071,2872.98 15.133,2874.68 13.817,2876.19C12.501,2877.7 10.891,2878.9 8.986,2879.78C7.081,2880.66 4.944,2881.11 2.574,2881.11C-0.456,2881.11 -3.13,2880.45 -5.449,2879.15C-7.768,2877.85 -9.579,2876.04 -10.883,2873.7C-12.186,2871.37 -12.838,2868.68 -12.838,2865.62C-12.838,2862.48 -12.195,2859.71 -10.91,2857.3C-9.624,2854.89 -7.823,2853 -5.508,2851.63C-3.192,2850.26 -0.494,2849.58 2.588,2849.58C5.579,2849.58 8.191,2850.23 10.422,2851.53C12.654,2852.83 14.39,2854.6 15.632,2856.83C16.874,2859.07 17.495,2861.61 17.495,2864.46C17.495,2864.85 17.489,2865.3 17.477,2865.78C17.465,2866.27 17.428,2866.78 17.365,2867.32L-4.858,2867.32C-4.858,2867.32 -4.858,2867.32 -4.858,2867.31L-4.888,2867.31L-4.888,2867.32L-4.858,2867.32ZM-1.378,2862.38L9.334,2862.38C9.23,2860.46 8.551,2858.93 7.295,2857.8C6.04,2856.66 4.477,2856.1 2.608,2856.1C1.232,2856.1 -0.028,2856.41 -1.172,2857.05C-2.317,2857.68 -3.222,2858.63 -3.889,2859.9C-4.268,2860.62 -4.539,2861.44 -4.702,2862.38L-1.378,2862.38ZM47.819,2852.8L38.801,2865.32L49.626,2880.39L40.947,2880.39L33.72,2870.01L26.499,2880.39L17.78,2880.39L28.614,2865.32L17.78,2850.29L26.492,2850.29L33.72,2860.58L40.947,2850.29L52.979,2850.29L53.88,2842.05L61.037,2842.05L61.037,2850.29L68.987,2850.29L68.987,2857.02L61.048,2857.02L61.048,2869.9C61.048,2871.26 61.344,2872.2 61.938,2872.73C62.531,2873.26 63.551,2873.53 64.996,2873.53L68.905,2873.53L68.905,2880.39L63.492,2880.39C61.395,2880.39 59.554,2880.06 57.971,2879.39C56.387,2878.73 55.159,2877.63 54.287,2876.1C53.415,2874.57 52.979,2872.48 52.979,2869.83L52.979,2857.02L47.819,2857.02L47.819,2852.8ZM-53.257,2880.39L-53.257,2838.55L-45.188,2838.55L-25.941,2867.41L-25.941,2838.55L-17.873,2838.55L-17.873,2880.39L-25.941,2880.39L-45.188,2851.6L-45.188,2880.39L-53.257,2880.39ZM90.556,2881.11C87.477,2881.11 84.684,2880.49 82.177,2879.27C79.671,2878.04 77.68,2876.18 76.203,2873.7C74.727,2871.21 73.989,2868.07 73.989,2864.27L73.989,2838.55L82.058,2838.55L82.058,2864.33C82.058,2866.41 82.401,2868.14 83.087,2869.54C83.774,2870.94 84.768,2871.98 86.069,2872.68C87.371,2873.37 88.918,2873.71 90.71,2873.71C92.542,2873.71 94.1,2873.37 95.386,2872.68C96.671,2871.98 97.659,2870.94 98.349,2869.54C99.039,2868.14 99.384,2866.41 99.384,2864.33L99.384,2838.55L107.453,2838.55L107.453,2864.27C107.453,2868.07 106.691,2871.21 105.168,2873.7C103.645,2876.18 101.602,2878.04 99.041,2879.27C96.48,2880.49 93.652,2881.11 90.556,2881.11ZM113.446,2880.39L113.446,2838.55L129.115,2838.55C132.504,2838.55 135.31,2839.12 137.534,2840.27C139.758,2841.41 141.416,2842.97 142.506,2844.93C143.596,2846.89 144.141,2849.12 144.141,2851.62C144.141,2853.93 143.616,2856.07 142.566,2858.04C141.516,2860.01 139.882,2861.59 137.665,2862.8C135.448,2864.01 132.598,2864.62 129.115,2864.62L121.514,2864.62L121.514,2880.39L113.446,2880.39ZM121.514,2858.09L128.616,2858.09C131.215,2858.09 133.081,2857.51 134.215,2856.33C135.35,2855.15 135.917,2853.58 135.917,2851.61C135.917,2849.58 135.35,2847.98 134.215,2846.84C133.081,2845.69 131.215,2845.11 128.616,2845.11L121.514,2845.11L121.514,2858.09Z" style="fill:white;"/>
                </g>
                <g transform="matrix(0.338823,0,0,0.485407,-1255.72,2876.93)">
                    <path d="M3394.07,-90.982C3394.05,-91.325 3394.04,-91.67 3394.04,-92.015L3442.28,-92.016C3451.9,-92.016 3461.13,-89.37 3467.93,-84.661C3474.74,-79.952 3478.56,-73.565 3478.56,-66.905L3478.56,-60.236C3478.56,-53.577 3474.74,-47.191 3467.93,-42.482C3465.22,-40.604 3462.12,-39.055 3458.77,-37.871L3460.6,-37.871C3470.22,-37.871 3479.45,-35.225 3486.26,-30.516C3493.06,-25.807 3496.88,-19.419 3496.88,-12.759L3496.88,1.096C3496.88,5.849 3494.16,10.408 3489.3,13.769C3484.44,17.13 3477.86,19.018 3470.99,19.018L3460.6,19.018L3460.6,17.441L3460.6,-11.182L3453.38,-11.182L3448.65,-11.182L3442.28,-11.182L3442,-11.182L3430.33,-11.182C3420.7,-11.182 3411.47,-13.827 3404.67,-18.536C3397.87,-23.246 3394.04,-29.633 3394.04,-36.293L3394.05,-36.293C3394.05,-36.474 3394.04,-36.655 3394.04,-36.836L3394.07,-36.836C3394.05,-37.18 3394.04,-37.525 3394.04,-37.87L3405.71,-37.87L3412.37,-37.87L3417.09,-37.87L3442.28,-37.87L3442.28,-65.327L3430.33,-65.327C3420.7,-65.327 3411.47,-67.973 3404.67,-72.682C3397.87,-77.391 3394.04,-83.779 3394.04,-90.439L3394.05,-90.439C3394.05,-90.619 3394.04,-90.8 3394.04,-90.982L3394.07,-90.982Z" style="fill:white;"/>
                </g>
            </g>
        </g>
    </g>
</svg>
