<?xml version="1.0" encoding="UTF-8" standalone="no"?>
<!DOCTYPE svg PUBLIC "-//W3C//DTD SVG 1.1//EN" "http://www.w3.org/Graphics/SVG/1.1/DTD/svg11.dtd">
<svg width="100%" height="100%" viewBox="0 0 491 115" version="1.1" xmlns="http://www.w3.org/2000/svg" xmlns:xlink="http://www.w3.org/1999/xlink" xml:space="preserve" xmlns:serif="http://www.serif.com/" style="fill-rule:evenodd;clip-rule:evenodd;stroke-linejoin:round;stroke-miterlimit:2;">
    <g transform="matrix(1,0,0,1,-2688,-2478.52)">
        <g id="Artboard5" transform="matrix(1,0,0,0.569709,-0.695704,1090.97)">
            <rect x="2688.7" y="2435.54" width="490.217" height="200.453" style="fill:none;"/>
            <g transform="matrix(1.08337,0,0,9.82318,2542.73,1275.48)">
                <g transform="matrix(0.8893,0,0,0.8893,34.1053,12.2365)">
                    <g transform="matrix(0.354714,0,0,0.0686671,0,-18.6147)">
                        <path d="M662.236,2156.87C658.09,2155.7 654.271,2153.47 651.169,2150.37C646.387,2145.59 643.7,2139.11 643.7,2132.34L643.7,2125.6L662.236,2125.6L662.236,2125.52L727.629,2125.52C737.093,2125.52 745.572,2127.68 753.067,2132C760.561,2136.32 766.493,2142.22 770.864,2149.7C775.234,2157.18 777.419,2165.67 777.419,2175.15C777.419,2184.88 775.234,2193.61 770.864,2201.34C766.493,2209.07 760.561,2215.19 753.067,2219.7C745.572,2224.2 737.093,2226.45 727.629,2226.45L699.02,2226.45L699.02,2276.99L662.236,2276.99L662.236,2156.87ZM698.523,2194.01L722.476,2194.01C725.709,2194.01 728.621,2193.22 731.214,2191.65C733.807,2190.08 735.871,2187.93 737.405,2185.2C738.939,2182.47 739.705,2179.29 739.705,2175.65C739.705,2172 738.939,2168.88 737.405,2166.26C735.871,2163.65 733.807,2161.61 731.214,2160.15C728.621,2158.69 725.709,2157.96 722.476,2157.96L698.523,2157.96L698.523,2194.01Z" style="fill:white;"/>
                    </g>
                    <g transform="matrix(0.354714,0,0,0.0686671,0,-18.6147)">
                        <path d="M818.261,2226.98C818.93,2229.49 819.884,2231.84 821.123,2234.01C823.82,2238.73 827.721,2242.39 832.827,2244.98C837.934,2247.58 844.04,2248.88 851.147,2248.88C856.026,2248.88 860.386,2248.16 864.224,2246.74C868.062,2245.33 872.174,2242.87 876.557,2239.37L892.901,2262.37C888.363,2266.24 883.565,2269.4 878.505,2271.83C873.445,2274.26 868.304,2276.09 863.081,2277.31C857.859,2278.54 852.621,2279.15 847.367,2279.15C834.689,2279.15 823.655,2276.6 814.266,2271.5C804.878,2266.4 797.603,2259.42 792.441,2250.55C787.28,2241.69 784.699,2231.51 784.699,2220.01C784.699,2211.23 786.141,2203.16 789.026,2195.81C791.911,2188.45 795.956,2182.07 801.159,2176.66C806.362,2171.25 812.534,2167.07 819.674,2164.11C826.815,2161.15 834.61,2159.67 843.06,2159.67C851.079,2159.67 858.448,2161.12 865.167,2164.02C871.886,2166.91 877.693,2170.96 882.589,2176.15C887.484,2181.35 891.236,2187.49 893.844,2194.57C896.452,2201.65 897.642,2209.36 897.414,2217.71L897.198,2226.98L818.261,2226.98ZM818.115,2207.62L865.252,2207.62L865.252,2207.23C865.069,2203.62 864.001,2200.42 862.047,2197.63C860.093,2194.83 857.521,2192.64 854.332,2191.05C851.142,2189.47 847.551,2188.68 843.557,2188.68C837.836,2188.68 833.012,2189.8 829.083,2192.06C825.155,2194.31 822.171,2197.56 820.134,2201.81C819.283,2203.58 818.611,2205.52 818.115,2207.62Z" style="fill:white;"/>
                    </g>
                    <g transform="matrix(0.354714,0,0,0.0686671,0,-18.6147)">
                        <path d="M950.048,2179.62C950.919,2178.27 951.862,2176.96 952.878,2175.69C956.826,2170.76 961.495,2166.88 966.885,2164.03C972.275,2161.19 977.97,2159.77 983.97,2159.77C986.506,2159.77 988.912,2159.96 991.188,2160.36C993.465,2160.75 995.501,2161.23 997.298,2161.81L987.851,2200.08C986.287,2199.19 984.169,2198.39 981.497,2197.68C978.825,2196.97 976.024,2196.61 973.094,2196.61C969.945,2196.61 967.018,2197.16 964.312,2198.26C961.606,2199.36 959.291,2200.94 957.368,2202.98C955.444,2205.03 953.937,2207.43 952.848,2210.18C951.758,2212.93 951.213,2216.02 951.213,2219.45L951.213,2276.99L916.413,2276.99L916.413,2162.15L949.35,2162.15L950.048,2179.62Z" style="fill:white;"/>
                    </g>
                    <g transform="matrix(0.354714,0,0,0.0686671,0,-18.6147)">
                        <path d="M1050.47,2279.15C1039.21,2279.15 1029.28,2277.35 1020.69,2273.74C1012.09,2270.13 1005.22,2265.29 1000.09,2259.21L1021.2,2241.14C1025.69,2245.61 1030.75,2248.88 1036.37,2250.95C1041.98,2253.02 1047.33,2254.05 1052.42,2254.05C1054.35,2254.05 1056.11,2253.85 1057.68,2253.45C1059.25,2253.05 1060.58,2252.43 1061.66,2251.59C1062.74,2250.74 1063.56,2249.77 1064.14,2248.67C1064.72,2247.57 1065,2246.31 1065,2244.89C1065,2242.06 1063.76,2239.86 1061.27,2238.29C1059.91,2237.53 1057.72,2236.64 1054.7,2235.62C1051.68,2234.6 1047.76,2233.49 1042.94,2232.27C1036.14,2230.52 1030.27,2228.44 1025.3,2226.03C1020.34,2223.62 1016.29,2220.85 1013.15,2217.72C1010.25,2214.73 1008.02,2211.39 1006.47,2207.68C1004.92,2203.99 1004.14,2199.86 1004.14,2195.3C1004.14,2189.88 1005.38,2184.99 1007.84,2180.65C1010.31,2176.31 1013.69,2172.58 1017.99,2169.46C1022.29,2166.34 1027.19,2163.94 1032.71,2162.27C1038.22,2160.6 1043.96,2159.77 1049.92,2159.77C1056.25,2159.77 1062.3,2160.47 1068.06,2161.87C1073.82,2163.27 1079.21,2165.28 1084.22,2167.9C1089.22,2170.51 1093.66,2173.61 1097.52,2177.2L1079.29,2197.47C1076.71,2195.15 1073.8,2193 1070.56,2191.03C1067.31,2189.06 1063.96,2187.48 1060.52,2186.29C1057.08,2185.09 1053.91,2184.49 1051,2184.49C1048.8,2184.49 1046.86,2184.68 1045.2,2185.05C1043.53,2185.42 1042.14,2185.99 1041.02,2186.78C1039.9,2187.56 1039.05,2188.5 1038.48,2189.61C1037.9,2190.72 1037.61,2191.99 1037.61,2193.41C1037.67,2194.87 1038.08,2196.24 1038.83,2197.53C1039.59,2198.81 1040.72,2199.91 1042.25,2200.82C1043.67,2201.64 1045.95,2202.62 1049.08,2203.75C1052.21,2204.88 1056.56,2206.19 1062.13,2207.68C1068.93,2209.55 1074.75,2211.67 1079.61,2214.03C1084.46,2216.39 1088.34,2219.13 1091.25,2222.27C1093.64,2224.76 1095.41,2227.6 1096.56,2230.79C1097.71,2233.99 1098.29,2237.49 1098.29,2241.3C1098.29,2248.62 1096.2,2255.13 1092.03,2260.83C1087.85,2266.53 1082.17,2271.01 1074.97,2274.26C1067.77,2277.52 1059.61,2279.15 1050.47,2279.15Z" style="fill:white;"/>
                    </g>
                    <g transform="matrix(0.354714,0,0,0.0686671,0,-18.6147)">
                        <path d="M1192.67,2262.22C1191.84,2263.31 1190.95,2264.37 1189.98,2265.39C1185.95,2269.68 1181.12,2273.07 1175.5,2275.55C1169.87,2278.03 1163.86,2279.28 1157.45,2279.28C1148.96,2279.28 1141.69,2277.44 1135.67,2273.77C1129.64,2270.11 1125.02,2264.82 1121.82,2257.91C1118.62,2251.01 1117.01,2242.71 1117.01,2233L1117.01,2162.15L1151.72,2162.15L1151.72,2228.3C1151.72,2232.95 1152.48,2236.93 1153.99,2240.23C1155.5,2243.53 1157.68,2246.06 1160.53,2247.83C1163.38,2249.6 1166.83,2250.48 1170.88,2250.48C1173.91,2250.48 1176.67,2250.01 1179.18,2249.05C1181.69,2248.09 1183.86,2246.72 1185.68,2244.93C1187.5,2243.14 1188.92,2241.03 1189.95,2238.61C1190.98,2236.18 1191.49,2233.57 1191.49,2230.77L1191.49,2162.15L1226.2,2162.15L1226.2,2276.99L1193.61,2276.99L1192.67,2262.22Z" style="fill:white;"/>
                    </g>
                    <g transform="matrix(0.354714,0,0,0.0686671,0.709429,-18.6147)">
                        <path d="M1341.23,2195.23L1310,2276.99L1280.91,2276.99L1235.64,2125.52L1249.05,2125.52C1263.26,2125.52 1275.75,2134.95 1279.63,2148.63L1295.69,2205.14C1296.73,2208.69 1297.62,2212.31 1298.39,2215.99C1299.15,2219.67 1299.78,2223.18 1300.27,2226.52C1300.28,2226.57 1300.29,2226.63 1300.3,2226.68C1300.87,2223.22 1301.49,2219.91 1302.17,2216.74C1302.98,2213.02 1304.08,2209.12 1305.49,2205.05L1327.91,2145.24L1357.34,2145.24L1379.39,2205.05C1381.17,2209.84 1382.61,2214.34 1383.74,2218.56C1384.33,2220.76 1384.85,2222.91 1385.31,2225.01C1385.41,2224.11 1385.52,2223.2 1385.63,2222.27C1385.92,2219.99 1386.37,2217.43 1386.98,2214.61C1387.58,2211.78 1388.38,2208.53 1389.37,2204.87L1405.27,2148.66C1409.14,2134.97 1421.63,2125.52 1435.86,2125.52L1448.47,2125.52L1402.95,2276.99L1374.92,2276.99L1341.23,2195.23Z" style="fill:white;"/>
                    </g>
                    <g transform="matrix(0.354714,0,0,0.0686671,1.41886,-18.6147)">
                        <path d="M1494.62,2171.53L1494.62,2276.99L1459.91,2276.99L1459.91,2171.53L1494.62,2171.53ZM1477.27,2125.44C1487.12,2125.44 1495.11,2132.7 1495.11,2141.64C1495.11,2150.57 1487.12,2157.83 1477.27,2157.83C1467.42,2157.83 1459.42,2150.57 1459.42,2141.64C1459.42,2132.7 1467.42,2125.44 1477.27,2125.44Z" style="fill:white;"/>
                    </g>
                    <g transform="matrix(0.354714,0,0,0.0686671,1.06414,-18.6147)">
                        <path d="M1563.52,2279.15C1552.26,2279.15 1542.34,2277.35 1533.74,2273.74C1525.14,2270.13 1518.28,2265.29 1513.14,2259.21L1534.25,2241.14C1538.75,2245.61 1543.8,2248.88 1549.42,2250.95C1555.04,2253.02 1560.39,2254.05 1565.47,2254.05C1567.4,2254.05 1569.16,2253.85 1570.73,2253.45C1572.31,2253.05 1573.63,2252.43 1574.71,2251.59C1575.79,2250.74 1576.62,2249.77 1577.19,2248.67C1577.77,2247.57 1578.06,2246.31 1578.06,2244.89C1578.06,2242.06 1576.81,2239.86 1574.32,2238.29C1572.96,2237.53 1570.77,2236.64 1567.75,2235.62C1564.73,2234.6 1560.81,2233.49 1555.99,2232.27C1549.19,2230.52 1543.32,2228.44 1538.35,2226.03C1533.39,2223.62 1529.34,2220.85 1526.21,2217.72C1523.3,2214.73 1521.07,2211.39 1519.52,2207.68C1517.97,2203.99 1517.2,2199.86 1517.2,2195.3C1517.2,2189.88 1518.43,2184.99 1520.89,2180.65C1523.36,2176.31 1526.74,2172.58 1531.04,2169.46C1535.34,2166.34 1540.25,2163.94 1545.76,2162.27C1551.28,2160.6 1557.01,2159.77 1562.97,2159.77C1569.3,2159.77 1575.35,2160.47 1581.11,2161.87C1586.87,2163.27 1592.26,2165.28 1597.27,2167.9C1602.28,2170.51 1606.71,2173.61 1610.57,2177.2L1592.34,2197.47C1589.76,2195.15 1586.85,2193 1583.61,2191.03C1580.36,2189.06 1577.02,2187.48 1573.57,2186.29C1570.13,2185.09 1566.96,2184.49 1564.05,2184.49C1561.85,2184.49 1559.92,2184.68 1558.25,2185.05C1556.59,2185.42 1555.19,2185.99 1554.07,2186.78C1552.95,2187.56 1552.1,2188.5 1551.53,2189.61C1550.95,2190.72 1550.66,2191.99 1550.66,2193.41C1550.73,2194.87 1551.13,2196.24 1551.89,2197.53C1552.64,2198.81 1553.78,2199.91 1555.3,2200.82C1556.72,2201.64 1559,2202.62 1562.13,2203.75C1565.26,2204.88 1569.61,2206.19 1575.18,2207.68C1581.98,2209.55 1587.81,2211.67 1592.66,2214.03C1597.51,2216.39 1601.39,2219.13 1604.3,2222.27C1606.69,2224.76 1608.46,2227.6 1609.61,2230.79C1610.77,2233.99 1611.34,2237.49 1611.34,2241.3C1611.34,2248.62 1609.26,2255.13 1605.08,2260.83C1600.9,2266.53 1595.22,2271.01 1588.02,2274.26C1580.83,2277.52 1572.66,2279.15 1563.52,2279.15Z" style="fill:white;"/>
                    </g>
                    <g transform="matrix(0.354714,0,0,0.0686671,1.41886,-18.6147)">
                        <path d="M1656.95,2226.98C1657.62,2229.49 1658.58,2231.84 1659.82,2234.01C1662.51,2238.73 1666.41,2242.39 1671.52,2244.98C1676.63,2247.58 1682.73,2248.88 1689.84,2248.88C1694.72,2248.88 1699.08,2248.16 1702.92,2246.74C1706.75,2245.33 1710.87,2242.87 1715.25,2239.37L1731.59,2262.37C1727.06,2266.24 1722.26,2269.4 1717.2,2271.83C1712.14,2274.26 1707,2276.09 1701.77,2277.31C1696.55,2278.54 1691.31,2279.15 1686.06,2279.15C1673.38,2279.15 1662.35,2276.6 1652.96,2271.5C1643.57,2266.4 1636.3,2259.42 1631.13,2250.55C1625.97,2241.69 1623.39,2231.51 1623.39,2220.01C1623.39,2211.23 1624.83,2203.16 1627.72,2195.81C1630.6,2188.45 1634.65,2182.07 1639.85,2176.66C1645.05,2171.25 1651.23,2167.07 1658.37,2164.11C1665.51,2161.15 1673.3,2159.67 1681.75,2159.67C1689.77,2159.67 1697.14,2161.12 1703.86,2164.02C1710.58,2166.91 1716.38,2170.96 1721.28,2176.15C1726.18,2181.35 1729.93,2187.49 1732.54,2194.57C1735.14,2201.65 1736.33,2209.36 1736.11,2217.71L1735.89,2226.98L1656.95,2226.98ZM1656.81,2207.62L1703.94,2207.62L1703.94,2207.23C1703.76,2203.62 1702.69,2200.42 1700.74,2197.63C1698.79,2194.83 1696.21,2192.64 1693.02,2191.05C1689.83,2189.47 1686.24,2188.68 1682.25,2188.68C1676.53,2188.68 1671.7,2189.8 1667.78,2192.06C1663.85,2194.31 1660.86,2197.56 1658.83,2201.81C1657.98,2203.58 1657.3,2205.52 1656.81,2207.62Z" style="fill:white;"/>
                    </g>
                </g>
                <g transform="matrix(0.882929,0,0,0.172061,-1243.45,-69.6559)">
                    <path d="M1603.42,1202.48C1598.13,1204.13 1592.4,1205.03 1586.42,1205.03C1579.01,1205.03 1571.98,1203.65 1565.69,1201.17C1565.86,1201.17 1566.04,1201.17 1566.21,1201.17C1575.64,1201.17 1589.09,1196.71 1597.16,1191.49C1601.78,1188.5 1604.69,1184.83 1604.9,1184.5C1603.84,1184.34 1602.8,1184.16 1601.78,1183.95C1590.36,1181.59 1581.47,1176.05 1577.9,1168.47C1580.85,1169.78 1584.18,1170.83 1587.8,1171.57C1588.44,1171.7 1589.09,1171.82 1589.75,1171.93C1578.78,1166.2 1571.38,1157.88 1570.22,1149.19C1572.63,1151.33 1575.49,1153.34 1578.72,1155.13C1580.64,1156.2 1582.69,1157.19 1584.85,1158.1C1582.66,1156.59 1580.64,1154.99 1578.81,1153.31C1571.66,1146.78 1567.45,1139.16 1567.46,1131.92C1570.79,1135.86 1575.29,1139.6 1580.66,1142.85C1581.42,1143.31 1582.19,1143.76 1582.99,1144.2C1571.14,1134.2 1564.6,1121.74 1566.37,1111.6C1569.54,1117.05 1574.46,1122.55 1580.7,1127.47C1572.61,1116.07 1569.45,1103.91 1572.79,1095.11C1576.17,1104.85 1584.04,1115.62 1595.11,1124.52C1598.61,1127.33 1602.19,1129.77 1605.78,1131.81C1606.21,1131.2 1606.68,1130.61 1607.19,1130.04C1609.38,1127.58 1612.26,1125.47 1615.65,1124.02C1616.95,1123.46 1618.27,1123.03 1619.58,1122.73C1627.06,1120.96 1634.1,1123.28 1636.89,1128.64C1638.76,1128.07 1640.74,1127.57 1642.79,1127.18C1651.55,1125.52 1659.57,1126.18 1664.29,1128.53C1660.74,1128 1656.54,1128.09 1652.12,1128.93C1646.5,1129.99 1641.56,1132.08 1638.11,1134.6C1634.53,1137.22 1632.53,1140.3 1632.99,1143.21C1633.08,1143.73 1633.23,1144.22 1633.46,1144.7C1633.45,1144.71 1633.43,1144.73 1633.42,1144.74C1634.29,1146.36 1635.03,1148.06 1635.62,1149.83C1637.92,1156.65 1638.09,1164.45 1635.59,1171.9C1634.84,1174.14 1633.88,1176.23 1632.76,1178.16C1632.04,1179.63 1631.23,1181.1 1630.34,1182.55C1630.22,1182.74 1630.1,1182.92 1629.98,1183.11C1627.05,1187.7 1623.6,1191.41 1620.07,1194.03C1615.84,1197.49 1610.78,1200.26 1605.13,1201.99C1604.56,1202.17 1603.99,1202.33 1603.42,1202.48Z" style="fill:white;"/>
                </g>
            </g>
        </g>
    </g>
</svg>
