<?xml version="1.0" encoding="UTF-8" standalone="no"?>
<!DOCTYPE svg PUBLIC "-//W3C//DTD SVG 1.1//EN" "http://www.w3.org/Graphics/SVG/1.1/DTD/svg11.dtd">
<svg width="100%" height="100%" viewBox="0 0 495 60" version="1.1" xmlns="http://www.w3.org/2000/svg" xmlns:xlink="http://www.w3.org/1999/xlink" xml:space="preserve" xmlns:serif="http://www.serif.com/" style="fill-rule:evenodd;clip-rule:evenodd;stroke-linejoin:round;stroke-miterlimit:2;">
    <g transform="matrix(1,0,0,1,-2688,-2186.17)">
        <g id="Artboard5" transform="matrix(1.00833,0,0,0.298568,-23.0803,1459)">
            <rect x="2688.7" y="2435.54" width="490.217" height="200.453" style="fill:none;"/>
            <g transform="matrix(0.335227,0,0,0.961693,1538.48,2069.01)">
                <g>
                    <g transform="matrix(3.17074,0,0,3.73268,-17485.9,-581.272)">
                        <path d="M6734.24,297.073C6734.24,283.036 6713.51,286.322 6713.51,279.035C6713.51,276.406 6715.36,275.152 6717.81,275.212C6720.56,275.272 6722.47,276.884 6722.65,279.572L6733.7,279.572C6733.28,271.568 6727.13,267.029 6717.99,267.029C6709.21,267.029 6702.7,271.449 6702.7,279.393C6702.58,294.266 6723.54,290.085 6723.54,297.85C6723.54,300.299 6721.63,301.792 6718.65,301.792C6715.78,301.792 6713.75,300.239 6713.45,297.013L6702.58,297.013C6702.88,305.495 6709.93,309.975 6718.94,309.975C6728.74,309.975 6734.24,304.121 6734.24,297.073Z" style="fill:white;fill-rule:nonzero;"/>
                    </g>
                    <g transform="matrix(3.17074,0,0,3.73268,-17484.6,-581.272)">
                        <path d="M6740.86,309.557L6751.08,309.557L6751.08,291.458C6751.08,286.919 6753.59,284.41 6757.47,284.41C6761.35,284.41 6763.86,286.919 6763.86,291.458L6763.86,309.557L6774.02,309.557L6774.02,290.085C6774.02,281.125 6768.94,275.869 6761.35,275.869C6756.75,275.869 6753.11,277.84 6751.08,280.707L6751.08,265.356L6740.86,265.356L6740.86,309.557Z" style="fill:white;fill-rule:nonzero;"/>
                    </g>
                    <g transform="matrix(3.17074,0,0,3.73268,-17487,-581.272)">
                        <path d="M6781.48,309.557L6791.7,309.557L6791.7,276.227L6781.48,276.227L6781.48,309.557ZM6786.62,272.763C6790.2,272.763 6792.65,270.314 6792.65,267.268C6792.65,264.162 6790.2,261.713 6786.62,261.713C6782.98,261.713 6780.53,264.162 6780.53,267.268C6780.53,270.314 6782.98,272.763 6786.62,272.763Z" style="fill:white;fill-rule:nonzero;"/>
                    </g>
                    <g transform="matrix(3.17074,0,0,3.73268,-17485.8,-581.272)">
                        <path d="M6800.48,309.557L6810.69,309.557L6810.69,284.709L6816.19,284.709L6816.19,276.227L6810.69,276.227L6810.69,275.929C6810.69,272.404 6812.06,271.21 6816.01,271.449L6816.01,262.788C6805.85,262.25 6800.48,266.551 6800.48,275.272L6800.48,276.227L6796.77,276.227L6796.77,284.709L6800.48,284.709L6800.48,309.557Z" style="fill:white;fill-rule:nonzero;"/>
                    </g>
                    <g transform="matrix(3.17074,0,0,3.73268,-17479.9,-581.272)">
                        <path d="M6822.94,297.969C6822.94,306.63 6827.77,309.557 6834.7,309.557L6839.9,309.557L6839.9,300.896L6836.26,300.896C6833.99,300.896 6833.15,300.06 6833.15,298.089L6833.15,284.709L6839.84,284.709L6839.84,276.227L6833.15,276.227L6833.15,268.104L6822.94,268.104L6822.94,276.227L6818.87,276.227L6818.87,284.709L6822.94,284.709L6822.94,297.969Z" style="fill:white;fill-rule:nonzero;"/>
                    </g>
                    <g transform="matrix(3.17074,0,0,3.73268,-17047.5,-580.899)">
                        <rect x="6716.79" y="267.626" width="10.214" height="41.931" style="fill:white;fill-rule:nonzero;"/>
                    </g>
                    <g transform="matrix(3.17074,0,0,3.73268,-17048.6,-580.899)">
                        <path d="M6757.77,309.557L6767.92,309.557L6767.92,290.085C6767.92,281.125 6762.79,275.869 6755.08,275.869C6750.6,275.869 6747.02,277.84 6744.99,280.647L6744.99,276.227L6734.77,276.227L6734.77,309.557L6744.99,309.557L6744.99,291.458C6744.99,286.919 6747.49,284.41 6751.38,284.41C6755.26,284.41 6757.77,286.919 6757.77,291.458L6757.77,309.557Z" style="fill:white;fill-rule:nonzero;"/>
                    </g>
                    <g transform="matrix(3.17074,0,0,3.73268,-16860.2,-580.899)">
                        <path d="M6714.52,275.809L6725.63,275.809L6725.63,309.557L6735.85,309.557L6735.85,275.809L6746.96,275.809L6746.96,267.626L6714.52,267.626L6714.52,275.809Z" style="fill:white;fill-rule:nonzero;"/>
                    </g>
                    <g transform="matrix(3.17074,0,0,3.73268,-16873.1,-580.899)">
                        <path d="M6767.15,283.932C6770.55,283.932 6773.42,286.023 6773.42,289.667L6760.64,289.667C6761.23,285.963 6763.8,283.932 6767.15,283.932ZM6783.1,298.507L6772.22,298.507C6771.39,300.299 6769.78,301.732 6766.91,301.732C6763.62,301.732 6760.94,299.701 6760.58,295.341L6783.69,295.341C6783.81,294.325 6783.87,293.31 6783.87,292.354C6783.87,282.2 6777,275.749 6767.27,275.749C6757.35,275.749 6750.42,282.32 6750.42,292.892C6750.42,303.464 6757.47,310.035 6767.27,310.035C6775.57,310.035 6781.48,305.017 6783.1,298.507Z" style="fill:white;fill-rule:nonzero;"/>
                    </g>
                    <g transform="matrix(3.17074,0,0,3.73268,-16870.7,-580.899)">
                        <path d="M6787.57,292.892C6787.57,303.464 6794.5,310.035 6804.3,310.035C6812.66,310.035 6818.57,305.196 6820.31,297.491L6809.44,297.491C6808.54,299.94 6806.93,301.314 6804.12,301.314C6800.48,301.314 6797.97,298.447 6797.97,292.892C6797.97,287.337 6800.48,284.47 6804.12,284.47C6806.93,284.47 6808.6,285.963 6809.44,288.293L6820.31,288.293C6818.57,280.349 6812.66,275.749 6804.3,275.749C6794.5,275.749 6787.57,282.379 6787.57,292.892Z" style="fill:white;fill-rule:nonzero;"/>
                    </g>
                    <g transform="matrix(3.17074,0,0,3.73268,-16869.5,-580.899)">
                        <path d="M6826.1,309.557L6836.31,309.557L6836.31,291.458C6836.31,286.919 6838.82,284.41 6842.7,284.41C6846.59,284.41 6849.1,286.919 6849.1,291.458L6849.1,309.557L6859.25,309.557L6859.25,290.085C6859.25,281.125 6854.17,275.869 6846.59,275.869C6841.99,275.869 6838.35,277.84 6836.31,280.707L6836.31,265.356L6826.1,265.356L6826.1,309.557Z" style="fill:white;fill-rule:nonzero;"/>
                    </g>
                    <g>
                        <g transform="matrix(1.05499,0,0,1.24196,-7912.48,-4251.41)">
                            <path d="M10949.2,3828.86L10800.2,3828.86C10791.1,3828.86 10782.3,3825.23 10775.8,3818.77C10769.4,3812.32 10765.7,3803.55 10765.7,3794.42L10986.4,3794.42C10995.6,3794.42 11004.3,3798.05 11010.8,3804.51C11017.2,3810.97 11020.9,3819.73 11020.9,3828.86L10984.8,3828.86L10977.3,3856.96C10973.1,3872.56 10958.8,3883.25 10942.6,3882.78L10934.8,3882.55L10949.2,3828.86Z" style="fill:white;"/>
                        </g>
                        <g transform="matrix(1.05499,0,0,1.24196,-7912.48,-4251.41)">
                            <path d="M10964.8,3740.64C10973.9,3740.64 10982.7,3744.27 10989.1,3750.73C10995.6,3757.19 10999.2,3765.95 10999.2,3775.09L10808.6,3775.09C10808.6,3765.95 10812.2,3757.19 10818.7,3750.73C10825.2,3744.27 10833.9,3740.64 10843,3740.64L10964.8,3740.64Z" style="fill:white;"/>
                        </g>
                        <g transform="matrix(1.05499,0,0,1.24196,-7912.48,-4251.41)">
                            <path d="M10914.7,3882.6L10820.8,3882.6C10801.7,3882.6 10786.3,3867.18 10786.3,3848.16L10924,3848.16L10914.7,3882.6Z" style="fill:white;"/>
                        </g>
                    </g>
                </g>
            </g>
        </g>
    </g>
</svg>
