<?xml version="1.0" encoding="UTF-8" standalone="no"?>
<!DOCTYPE svg PUBLIC "-//W3C//DTD SVG 1.1//EN" "http://www.w3.org/Graphics/SVG/1.1/DTD/svg11.dtd">
<svg width="100%" height="100%" viewBox="0 0 708 115" version="1.1" xmlns="http://www.w3.org/2000/svg" xmlns:xlink="http://www.w3.org/1999/xlink" xml:space="preserve" xmlns:serif="http://www.serif.com/" style="fill-rule:evenodd;clip-rule:evenodd;stroke-linejoin:round;stroke-miterlimit:2;">
    <g transform="matrix(1,0,0,1,1006.61,-1085.98)">
        <g id="takameru" transform="matrix(1.56727,0,0,1.56727,-5518.76,-4144.49)">
            <g transform="matrix(0.299254,0,0,0.299254,2937.28,3388.22)">
                <path d="M0,-96.211C0,-96.211 -0.34,-95.345 -0.34,-94.412C-0.34,-94.158 -0.32,-93.919 -0.28,-93.679C-0.273,-93.639 -0.273,-93.605 -0.26,-93.565C-0.253,-93.452 -0.233,-93.332 -0.207,-93.219C-0.173,-93.065 -0.133,-92.912 -0.093,-92.759L-0.093,-92.752C-0.093,-92.746 -0.093,-92.739 -0.087,-92.726C-0.087,-92.712 -0.08,-92.699 -0.08,-92.686C-0.08,-92.679 -0.067,-92.646 -0.053,-92.592C-0.053,-92.586 -0.047,-92.579 -0.04,-92.566C-0.04,-92.552 -0.033,-92.539 -0.027,-92.519C-0.02,-92.506 -0.013,-92.472 0.007,-92.426C0.027,-92.359 0.06,-92.266 0.087,-92.186C0.093,-92.146 0.107,-92.112 0.12,-92.079C0.127,-92.053 0.133,-92.033 0.14,-92.019C7.371,-70.754 14.601,-49.495 21.832,-28.229L21.832,-28.223C26.997,-13.095 32.168,2.026 37.333,17.154L42.831,33.248L48.855,50.888L48.882,50.975C49.115,51.715 49.229,52.474 49.229,53.227C49.229,55.207 48.456,57.139 47.009,58.585C45.75,59.845 44.49,61.104 43.231,62.371C39.879,65.723 36.52,69.082 33.168,72.44C33.148,72.46 33.134,72.474 33.114,72.487C33.021,72.587 32.921,72.667 32.821,72.754C32.775,72.794 32.728,72.834 32.681,72.867C32.608,72.927 32.528,72.987 32.448,73.04C32.441,73.047 32.428,73.053 32.421,73.06C32.335,73.12 32.241,73.173 32.148,73.227C32.048,73.287 31.942,73.34 31.835,73.393C31.195,73.7 30.475,73.873 29.716,73.873C28.849,73.873 28.036,73.647 27.33,73.253C27.23,73.2 27.137,73.133 27.037,73.073C26.79,72.907 26.564,72.72 26.35,72.514C26.344,72.507 26.33,72.5 26.324,72.494C26.304,72.48 26.284,72.46 26.264,72.44L-17.02,29.156L-17.027,29.156L-32.248,13.928L-35.827,10.35C-36.713,9.47 -37.26,8.251 -37.26,6.898L-37.26,-11.949C-37.26,-12.155 -37.246,-12.362 -37.22,-12.562C-37.126,-13.315 -36.86,-14.008 -36.467,-14.614C-36.28,-14.901 -36.067,-15.161 -35.827,-15.401C-34.947,-16.287 -33.721,-16.834 -32.375,-16.834C-31.622,-16.834 -30.909,-16.66 -30.269,-16.347C-29.762,-16.114 -29.309,-15.787 -28.923,-15.401C-20.499,-6.984 -12.082,1.433 -3.665,9.85L-3.612,9.903L3.619,17.281L3.659,17.254C4.485,17.92 5.545,18.32 6.698,18.32C9.39,18.32 11.576,16.134 11.576,13.442C11.576,12.962 11.509,12.496 11.376,12.063L11.389,12.056L5.205,-5.464C-2.419,-27.789 -10.05,-50.115 -17.673,-72.44C-17.747,-72.666 -17.827,-72.886 -17.9,-73.113C-17.927,-73.173 -17.947,-73.233 -17.96,-73.293C-17.96,-73.299 -17.967,-73.299 -17.967,-73.306C-18.267,-73.886 -18.74,-74.352 -19.333,-74.632C-19.726,-74.826 -20.166,-74.932 -20.626,-74.932C-21.352,-74.932 -22.019,-74.672 -22.532,-74.246C-22.552,-74.226 -22.572,-74.212 -22.592,-74.186C-22.692,-74.086 -22.798,-73.986 -22.898,-73.879C-22.912,-73.866 -22.925,-73.859 -22.932,-73.853C-22.938,-73.839 -22.945,-73.826 -22.952,-73.819C-24.771,-72.007 -26.597,-70.187 -28.416,-68.361L-28.729,-68.048C-28.743,-68.028 -28.763,-68.008 -28.776,-67.995L-29.089,-67.682C-29.116,-67.662 -29.143,-67.635 -29.169,-67.615C-29.323,-67.475 -29.489,-67.348 -29.669,-67.228C-30.442,-66.708 -31.375,-66.409 -32.375,-66.409C-35.074,-66.409 -37.26,-68.594 -37.26,-71.294L-37.26,-90.167L-37.22,-90.78C-37.126,-91.533 -36.86,-92.226 -36.467,-92.832C-36.28,-93.119 -36.067,-93.379 -35.827,-93.619L-35.087,-94.352L-35,-94.438L-34.9,-94.545L-33.888,-95.558L-32.575,-96.871C-32.568,-96.877 -32.568,-96.877 -32.568,-96.884C-32.481,-96.971 -32.388,-97.057 -32.301,-97.151C-32.108,-97.337 -31.915,-97.537 -31.708,-97.744C-31.602,-97.844 -31.495,-97.95 -31.388,-98.064C-31.069,-98.384 -30.722,-98.73 -30.362,-99.097C-30.116,-99.337 -29.869,-99.59 -29.609,-99.85C-29.476,-99.983 -28.943,-100.516 -28.803,-100.656C-28.53,-100.936 -28.243,-101.223 -27.95,-101.516C-27.803,-101.662 -27.656,-101.809 -27.503,-101.962C-27.35,-102.115 -27.197,-102.269 -27.043,-102.422C-26.424,-103.042 -25.777,-103.695 -25.091,-104.381C-24.918,-104.548 -24.744,-104.721 -24.571,-104.901C-24.398,-105.074 -24.224,-105.248 -24.044,-105.428C-23.151,-106.321 -22.212,-107.267 -21.226,-108.253C-21.026,-108.453 -20.826,-108.653 -20.626,-108.853C-20.426,-109.053 -20.226,-109.253 -20.019,-109.459C-19.813,-109.666 -19.606,-109.873 -19.4,-110.079L-18.773,-110.706C-18.56,-110.919 -18.347,-111.132 -18.133,-111.345C-17.06,-112.425 -15.941,-113.545 -14.781,-114.704C-13.855,-115.631 -12.902,-116.583 -11.922,-117.563C-11.436,-118.05 -10.943,-118.55 -10.436,-119.049C-9.936,-119.549 -9.43,-120.056 -8.917,-120.569L-2.492,-126.993C-1.373,-128.106 -0.24,-129.246 0.913,-130.398C2.073,-131.551 3.245,-132.731 4.438,-133.924C5.638,-135.117 6.851,-136.33 8.077,-137.556L8.137,-137.622L8.537,-138.069C8.623,-138.156 8.71,-138.249 8.79,-138.342C8.803,-138.349 8.81,-138.362 8.817,-138.369C8.817,-138.376 8.817,-138.376 8.823,-138.382L8.843,-138.402C8.897,-138.469 8.943,-138.529 8.983,-138.595L8.983,-138.602C9.03,-138.662 9.07,-138.709 9.103,-138.769C9.197,-138.882 9.27,-139.002 9.33,-139.129C9.37,-139.189 9.403,-139.242 9.423,-139.302L9.43,-139.308C9.443,-139.308 9.443,-139.315 9.436,-139.322C9.477,-139.388 9.517,-139.455 9.537,-139.528C9.543,-139.535 9.55,-139.535 9.543,-139.542L9.543,-139.548C9.823,-140.155 9.97,-140.815 9.97,-141.521C9.97,-144.22 7.784,-146.406 5.085,-146.406L5.058,-146.406C5.045,-146.406 5.032,-146.406 5.012,-146.399C5.005,-146.406 4.998,-146.406 4.992,-146.399C4.832,-146.419 4.665,-146.426 4.492,-146.426L-56.046,-146.426C-58.732,-146.426 -60.911,-144.26 -60.931,-141.581L-60.931,69.008C-60.931,69.348 -60.964,69.681 -61.031,70.001C-61.464,72.134 -63.297,73.766 -65.523,73.893C-65.623,73.906 -65.716,73.906 -65.816,73.906L-79.731,73.906C-79.811,73.906 -79.897,73.906 -79.977,73.893C-82.563,73.773 -84.616,71.641 -84.616,69.022L-84.616,-141.588C-84.636,-144.273 -86.815,-146.439 -89.5,-146.439L-150.038,-146.439C-150.178,-146.439 -150.318,-146.433 -150.451,-146.419C-150.485,-146.419 -150.511,-146.419 -150.538,-146.413C-150.545,-146.419 -150.551,-146.419 -150.558,-146.413C-150.585,-146.419 -150.605,-146.419 -150.631,-146.419C-153.33,-146.419 -155.516,-144.233 -155.516,-141.534C-155.516,-140.841 -155.376,-140.188 -155.103,-139.588C-155.096,-139.575 -155.096,-139.568 -155.09,-139.555C-155.096,-139.548 -155.09,-139.548 -155.083,-139.542C-155.083,-139.535 -155.076,-139.522 -155.07,-139.515C-155.05,-139.455 -155.016,-139.395 -154.983,-139.335C-154.99,-139.328 -154.99,-139.322 -154.976,-139.322C-154.95,-139.262 -154.916,-139.202 -154.876,-139.142C-154.863,-139.122 -154.856,-139.095 -154.836,-139.075C-154.796,-138.989 -154.75,-138.909 -154.683,-138.835C-154.676,-138.815 -154.663,-138.802 -154.65,-138.782C-154.616,-138.722 -154.577,-138.669 -154.53,-138.609C-154.49,-138.542 -154.443,-138.482 -154.39,-138.416C-154.383,-138.409 -154.383,-138.409 -154.377,-138.396L-154.37,-138.396L-154.37,-138.389C-154.37,-138.389 -154.363,-138.389 -154.363,-138.382C-154.27,-138.282 -154.177,-138.176 -154.083,-138.082L-153.624,-137.569C-153.39,-137.336 -153.157,-137.103 -152.924,-136.863C-152.171,-136.123 -151.431,-135.377 -150.698,-134.644C-150.331,-134.27 -149.965,-133.91 -149.598,-133.544C-148.865,-132.818 -148.146,-132.098 -147.439,-131.385L-146.373,-130.318C-145.313,-129.259 -144.267,-128.219 -143.247,-127.193C-142.901,-126.853 -142.561,-126.513 -142.228,-126.173L-141.221,-125.167C-139.889,-123.841 -138.582,-122.535 -137.316,-121.262L-136.37,-120.315C-135.743,-119.696 -135.13,-119.083 -134.524,-118.469L-133.618,-117.563C-132.711,-116.664 -131.838,-115.79 -130.992,-114.937L-130.146,-114.091C-129.299,-113.251 -128.486,-112.432 -127.693,-111.632C-127.426,-111.365 -127.167,-111.106 -126.907,-110.846C-126.647,-110.586 -126.394,-110.326 -126.134,-110.073C-125.88,-109.819 -125.634,-109.566 -125.381,-109.32C-125.134,-109.066 -124.887,-108.82 -124.641,-108.58C-124.334,-108.28 -124.034,-107.98 -123.741,-107.68C-123.148,-107.087 -122.568,-106.514 -122.015,-105.954C-121.735,-105.674 -121.462,-105.401 -121.195,-105.128C-120.982,-104.908 -120.769,-104.695 -120.556,-104.488C-120.342,-104.281 -120.136,-104.075 -119.936,-103.868C-119.729,-103.662 -119.523,-103.462 -119.329,-103.262C-118.93,-102.862 -118.55,-102.482 -118.183,-102.109C-117.997,-101.922 -117.81,-101.736 -117.63,-101.556C-117.477,-101.396 -117.317,-101.242 -117.164,-101.089C-117.144,-101.069 -117.124,-101.049 -117.104,-101.023C-116.93,-100.849 -116.757,-100.683 -116.59,-100.509C-116.424,-100.343 -116.257,-100.183 -116.097,-100.016C-115.937,-99.856 -115.777,-99.696 -115.624,-99.543C-115.598,-99.523 -115.577,-99.503 -115.558,-99.476C-115.424,-99.343 -115.298,-99.217 -115.171,-99.09C-114.871,-98.79 -114.591,-98.51 -114.325,-98.237C-114.191,-98.104 -114.058,-97.97 -113.931,-97.844C-113.798,-97.717 -113.678,-97.591 -113.558,-97.471L-112.972,-96.884L-111.526,-95.431L-111.486,-95.398L-111.326,-95.231L-110.646,-94.545L-110.459,-94.365L-109.72,-93.632C-109.48,-93.392 -109.266,-93.132 -109.08,-92.846C-108.687,-92.239 -108.42,-91.546 -108.327,-90.793L-108.287,-90.18L-108.287,-71.307C-108.287,-68.608 -110.473,-66.422 -113.172,-66.422C-114.171,-66.422 -115.104,-66.722 -115.877,-67.242C-116.084,-67.382 -116.277,-67.535 -116.457,-67.695L-116.77,-68.008C-116.784,-68.021 -116.804,-68.041 -116.817,-68.061L-117.13,-68.368L-117.13,-68.375C-118.95,-70.201 -120.776,-72.02 -122.595,-73.833C-122.608,-73.853 -122.622,-73.873 -122.648,-73.893C-122.748,-73.999 -122.855,-74.099 -122.955,-74.199C-122.975,-74.226 -122.995,-74.239 -123.015,-74.259C-123.021,-74.266 -123.035,-74.272 -123.041,-74.279C-123.548,-74.692 -124.208,-74.945 -124.921,-74.945C-125.381,-74.945 -125.82,-74.839 -126.214,-74.646C-126.8,-74.366 -127.267,-73.913 -127.566,-73.339C-127.573,-73.333 -127.573,-73.326 -127.58,-73.319C-127.58,-73.313 -127.586,-73.313 -127.586,-73.306C-127.6,-73.246 -127.62,-73.186 -127.646,-73.126C-127.72,-72.9 -127.8,-72.68 -127.873,-72.453C-132.518,-58.845 -137.17,-45.236 -141.815,-31.628C-144.8,-22.911 -147.772,-14.194 -150.751,-5.478L-156.936,12.043L-156.922,12.049C-157.056,12.482 -157.122,12.949 -157.122,13.429C-157.122,16.121 -154.936,18.307 -152.244,18.307C-151.091,18.307 -150.031,17.907 -149.205,17.241L-149.165,17.267L-142.261,10.223L-141.934,9.89L-141.881,9.837C-133.464,1.42 -125.047,-6.997 -116.624,-15.414C-116.237,-15.801 -115.784,-16.127 -115.278,-16.36C-114.638,-16.674 -113.925,-16.847 -113.172,-16.847C-111.826,-16.847 -110.599,-16.3 -109.72,-15.414C-109.48,-15.174 -109.266,-14.914 -109.08,-14.628C-108.687,-14.021 -108.42,-13.328 -108.327,-12.575C-108.3,-12.375 -108.287,-12.169 -108.287,-11.962L-108.287,6.884C-108.287,8.237 -108.833,9.457 -109.72,10.336L-110.506,11.13L-110.646,11.263L-110.646,11.269L-113.298,13.915L-128.519,29.143L-128.526,29.143L-171.81,72.427C-171.83,72.447 -171.85,72.467 -171.87,72.48C-172.75,73.34 -173.943,73.86 -175.262,73.86C-176.275,73.86 -177.215,73.553 -177.995,73.027C-178.121,72.94 -178.248,72.847 -178.368,72.74C-178.488,72.64 -178.601,72.54 -178.714,72.427C-180.714,70.421 -182.719,68.415 -184.725,66.416C-186.072,65.063 -187.424,63.71 -188.777,62.357L-190.73,60.411L-192.556,58.585C-194.002,57.139 -194.775,55.207 -194.775,53.227C-194.775,52.408 -194.642,51.581 -194.369,50.782L-188.377,33.235L-182.879,17.141C-177.715,2.013 -172.543,-13.108 -167.378,-28.236C-160.148,-49.502 -152.917,-70.767 -145.686,-92.033C-145.666,-92.079 -145.54,-92.486 -145.52,-92.532C-145.507,-92.559 -145.5,-92.586 -145.493,-92.606C-145.48,-92.652 -145.473,-92.686 -145.467,-92.699C-145.467,-92.706 -145.46,-92.712 -145.46,-92.719C-145.453,-92.739 -145.453,-92.752 -145.453,-92.766L-145.453,-92.772C-145.413,-92.926 -145.373,-93.079 -145.34,-93.232C-145.313,-93.359 -145.293,-93.492 -145.28,-93.619C-145.273,-93.645 -145.267,-93.665 -145.267,-93.692C-145.227,-93.932 -145.207,-94.172 -145.207,-94.425C-145.207,-95.358 -145.546,-96.224 -145.546,-96.224C-145.873,-97.044 -146.353,-97.597 -146.659,-97.897C-146.666,-97.91 -146.679,-97.93 -146.699,-97.95C-146.713,-97.964 -146.733,-97.984 -146.746,-97.99C-147.552,-98.803 -148.359,-99.596 -149.152,-100.389C-149.885,-101.116 -150.611,-101.842 -151.331,-102.562C-173.336,-124.441 -189.517,-140.595 -192.776,-143.907C-192.829,-143.96 -192.882,-144.013 -192.929,-144.06C-193.009,-144.147 -193.096,-144.227 -193.176,-144.307C-193.216,-144.347 -193.249,-144.387 -193.282,-144.413C-193.289,-144.427 -193.302,-144.44 -193.316,-144.447C-193.329,-144.46 -193.336,-144.467 -193.342,-144.48C-194.249,-145.44 -194.582,-146.559 -194.582,-146.559C-194.708,-146.999 -194.775,-147.459 -194.775,-147.932L-194.775,-165.226C-194.775,-165.392 -194.768,-165.559 -194.748,-165.725C-194.735,-165.859 -194.715,-165.992 -194.695,-166.125C-194.329,-168.071 -192.809,-169.611 -190.876,-170.011C-190.723,-170.044 -190.57,-170.064 -190.417,-170.077C-190.27,-170.097 -190.123,-170.111 -189.97,-170.104C-189.943,-170.111 -189.917,-170.111 -189.89,-170.111C-154.796,-170.117 -119.703,-170.117 -84.609,-170.117L-60.931,-170.117L-60.931,-170.104C-25.837,-170.104 9.25,-170.104 44.344,-170.097C47.043,-170.097 49.229,-167.905 49.229,-165.212L49.229,-147.919C49.229,-147.445 49.162,-146.986 49.035,-146.552C49.035,-146.552 48.709,-145.453 47.816,-144.493C47.816,-144.487 47.802,-144.473 47.796,-144.467C46.729,-143.34 27.517,-124.154 1.153,-97.937C1.133,-97.917 1.12,-97.897 1.113,-97.884C1.073,-97.844 1.033,-97.804 0.993,-97.757C0.686,-97.444 0.287,-96.937 0,-96.211" style="fill:white;"/>
            </g>
            <g transform="matrix(76.424,0,0,76.424,2969.47,3398.7)">
                <path d="M0.129,-0L0.129,-0.661L0.252,-0.661L0.252,-0L0.129,-0ZM0.025,-0.413L0.025,-0.527L0.367,-0.527L0.367,-0.413L0.025,-0.413Z" style="fill:white;fill-rule:nonzero;"/>
            </g>
            <g transform="matrix(76.424,0,0,76.424,2998.82,3398.7)">
                <path d="M0.271,0.01C0.228,0.01 0.188,-0.002 0.153,-0.026C0.118,-0.05 0.089,-0.083 0.068,-0.124C0.047,-0.165 0.036,-0.212 0.036,-0.265C0.036,-0.318 0.047,-0.365 0.068,-0.406C0.089,-0.447 0.118,-0.48 0.155,-0.503C0.192,-0.526 0.233,-0.538 0.279,-0.538C0.306,-0.538 0.33,-0.534 0.352,-0.527C0.374,-0.519 0.393,-0.508 0.41,-0.494C0.427,-0.48 0.44,-0.464 0.452,-0.446C0.463,-0.428 0.47,-0.409 0.474,-0.388L0.447,-0.395L0.447,-0.527L0.571,-0.527L0.571,-0L0.446,-0L0.446,-0.126L0.475,-0.131C0.47,-0.113 0.462,-0.096 0.45,-0.079C0.437,-0.062 0.422,-0.047 0.404,-0.034C0.385,-0.021 0.365,-0.01 0.343,-0.002C0.32,0.006 0.296,0.01 0.271,0.01ZM0.305,-0.099C0.334,-0.099 0.359,-0.106 0.381,-0.12C0.403,-0.134 0.42,-0.154 0.433,-0.179C0.445,-0.204 0.451,-0.232 0.451,-0.265C0.451,-0.297 0.445,-0.325 0.433,-0.35C0.42,-0.375 0.403,-0.394 0.381,-0.408C0.359,-0.422 0.334,-0.429 0.305,-0.429C0.276,-0.429 0.251,-0.422 0.23,-0.408C0.208,-0.394 0.191,-0.375 0.179,-0.35C0.167,-0.325 0.161,-0.297 0.161,-0.265C0.161,-0.232 0.167,-0.204 0.179,-0.179C0.191,-0.154 0.208,-0.134 0.23,-0.12C0.251,-0.106 0.276,-0.099 0.305,-0.099Z" style="fill:white;fill-rule:nonzero;"/>
            </g>
            <g transform="matrix(76.424,0,0,76.424,3047.88,3398.7)">
                <path d="M0.195,-0.661L0.195,-0.308L0.413,-0.527L0.577,-0.527L0.331,-0.297L0.58,0L0.428,0L0.248,-0.218L0.195,-0.169L0.195,0L0.072,0L0.072,-0.661L0.195,-0.661Z" style="fill:white;fill-rule:nonzero;"/>
            </g>
            <g transform="matrix(76.424,0,0,76.424,3091.22,3398.7)">
                <path d="M0.271,0.01C0.228,0.01 0.188,-0.002 0.153,-0.026C0.118,-0.05 0.089,-0.083 0.068,-0.124C0.047,-0.165 0.036,-0.212 0.036,-0.265C0.036,-0.318 0.047,-0.365 0.068,-0.406C0.089,-0.447 0.118,-0.48 0.155,-0.503C0.192,-0.526 0.233,-0.538 0.279,-0.538C0.306,-0.538 0.33,-0.534 0.352,-0.527C0.374,-0.519 0.393,-0.508 0.41,-0.494C0.427,-0.48 0.44,-0.464 0.452,-0.446C0.463,-0.428 0.47,-0.409 0.474,-0.388L0.447,-0.395L0.447,-0.527L0.571,-0.527L0.571,-0L0.446,-0L0.446,-0.126L0.475,-0.131C0.47,-0.113 0.462,-0.096 0.45,-0.079C0.437,-0.062 0.422,-0.047 0.404,-0.034C0.385,-0.021 0.365,-0.01 0.343,-0.002C0.32,0.006 0.296,0.01 0.271,0.01ZM0.305,-0.099C0.334,-0.099 0.359,-0.106 0.381,-0.12C0.403,-0.134 0.42,-0.154 0.433,-0.179C0.445,-0.204 0.451,-0.232 0.451,-0.265C0.451,-0.297 0.445,-0.325 0.433,-0.35C0.42,-0.375 0.403,-0.394 0.381,-0.408C0.359,-0.422 0.334,-0.429 0.305,-0.429C0.276,-0.429 0.251,-0.422 0.23,-0.408C0.208,-0.394 0.191,-0.375 0.179,-0.35C0.167,-0.325 0.161,-0.297 0.161,-0.265C0.161,-0.232 0.167,-0.204 0.179,-0.179C0.191,-0.154 0.208,-0.134 0.23,-0.12C0.251,-0.106 0.276,-0.099 0.305,-0.099Z" style="fill:white;fill-rule:nonzero;"/>
            </g>
            <g transform="matrix(76.424,0,0,76.424,3140.28,3398.7)">
                <path d="M0.07,-0L0.07,-0.527L0.191,-0.527L0.193,-0.421L0.173,-0.413C0.179,-0.43 0.188,-0.447 0.2,-0.462C0.212,-0.476 0.226,-0.49 0.243,-0.501C0.26,-0.511 0.277,-0.52 0.296,-0.527C0.315,-0.533 0.334,-0.536 0.353,-0.536C0.382,-0.536 0.407,-0.532 0.43,-0.523C0.452,-0.514 0.47,-0.499 0.486,-0.48C0.501,-0.461 0.512,-0.436 0.519,-0.406L0.5,-0.41L0.508,-0.426C0.515,-0.442 0.526,-0.456 0.539,-0.47C0.552,-0.483 0.567,-0.494 0.584,-0.505C0.601,-0.515 0.618,-0.523 0.637,-0.528C0.655,-0.533 0.673,-0.536 0.691,-0.536C0.731,-0.536 0.764,-0.528 0.791,-0.512C0.818,-0.496 0.838,-0.472 0.851,-0.439C0.864,-0.406 0.871,-0.366 0.871,-0.318L0.871,-0L0.747,-0L0.747,-0.31C0.747,-0.337 0.744,-0.359 0.737,-0.376C0.729,-0.393 0.719,-0.406 0.705,-0.415C0.69,-0.423 0.672,-0.427 0.651,-0.427C0.634,-0.427 0.619,-0.424 0.604,-0.419C0.588,-0.413 0.576,-0.405 0.565,-0.395C0.554,-0.384 0.546,-0.372 0.54,-0.359C0.534,-0.346 0.531,-0.331 0.531,-0.315L0.531,-0L0.407,-0L0.407,-0.311C0.407,-0.336 0.403,-0.358 0.396,-0.375C0.389,-0.392 0.378,-0.405 0.364,-0.414C0.35,-0.423 0.333,-0.427 0.313,-0.427C0.296,-0.427 0.281,-0.424 0.266,-0.419C0.251,-0.413 0.239,-0.405 0.228,-0.395C0.217,-0.385 0.209,-0.373 0.203,-0.36C0.197,-0.347 0.194,-0.332 0.194,-0.316L0.194,-0L0.07,-0Z" style="fill:white;fill-rule:nonzero;"/>
            </g>
            <g transform="matrix(76.424,0,0,76.424,3211.81,3398.7)">
                <path d="M0.319,0.01C0.264,0.01 0.215,-0.002 0.173,-0.025C0.13,-0.048 0.097,-0.08 0.074,-0.121C0.05,-0.161 0.038,-0.207 0.038,-0.259C0.038,-0.3 0.045,-0.338 0.058,-0.372C0.071,-0.406 0.09,-0.436 0.114,-0.461C0.137,-0.486 0.166,-0.505 0.199,-0.519C0.232,-0.532 0.268,-0.539 0.307,-0.539C0.342,-0.539 0.374,-0.532 0.404,-0.519C0.434,-0.506 0.46,-0.488 0.482,-0.465C0.504,-0.442 0.521,-0.414 0.533,-0.383C0.544,-0.351 0.55,-0.316 0.549,-0.279L0.548,-0.236L0.121,-0.236L0.098,-0.32L0.445,-0.32L0.429,-0.303L0.429,-0.325C0.427,-0.346 0.42,-0.364 0.409,-0.38C0.398,-0.395 0.383,-0.408 0.366,-0.417C0.348,-0.426 0.328,-0.43 0.307,-0.43C0.274,-0.43 0.247,-0.424 0.225,-0.411C0.202,-0.398 0.185,-0.38 0.174,-0.357C0.163,-0.333 0.157,-0.303 0.157,-0.268C0.157,-0.234 0.164,-0.204 0.179,-0.179C0.193,-0.154 0.213,-0.134 0.24,-0.121C0.266,-0.107 0.297,-0.1 0.332,-0.1C0.357,-0.1 0.379,-0.104 0.4,-0.112C0.421,-0.12 0.443,-0.134 0.467,-0.155L0.528,-0.07C0.51,-0.053 0.49,-0.039 0.467,-0.028C0.444,-0.016 0.419,-0.007 0.394,-0C0.369,0.007 0.344,0.01 0.319,0.01Z" style="fill:white;fill-rule:nonzero;"/>
            </g>
            <g transform="matrix(76.424,0,0,76.424,3256.6,3398.7)">
                <path d="M0.072,-0L0.072,-0.527L0.193,-0.527L0.195,-0.359L0.178,-0.397C0.185,-0.424 0.198,-0.448 0.216,-0.469C0.234,-0.49 0.255,-0.507 0.279,-0.52C0.302,-0.532 0.327,-0.538 0.353,-0.538C0.364,-0.538 0.375,-0.537 0.386,-0.535C0.396,-0.533 0.404,-0.531 0.411,-0.528L0.378,-0.393C0.371,-0.397 0.362,-0.4 0.351,-0.403C0.34,-0.406 0.33,-0.407 0.319,-0.407C0.302,-0.407 0.286,-0.404 0.272,-0.398C0.257,-0.391 0.243,-0.382 0.232,-0.371C0.221,-0.36 0.212,-0.346 0.206,-0.332C0.199,-0.317 0.196,-0.3 0.196,-0.281L0.196,-0L0.072,-0Z" style="fill:white;fill-rule:nonzero;"/>
            </g>
            <g transform="matrix(76.424,0,0,76.424,3288.77,3398.7)">
                <path d="M0.255,0.01C0.217,0.01 0.184,0.002 0.156,-0.016C0.128,-0.033 0.107,-0.057 0.092,-0.089C0.077,-0.12 0.07,-0.158 0.07,-0.202L0.07,-0.527L0.193,-0.527L0.193,-0.228C0.193,-0.2 0.197,-0.176 0.206,-0.157C0.215,-0.137 0.227,-0.122 0.244,-0.111C0.261,-0.1 0.281,-0.095 0.304,-0.095C0.321,-0.095 0.337,-0.098 0.352,-0.104C0.366,-0.109 0.378,-0.117 0.389,-0.128C0.4,-0.138 0.408,-0.15 0.414,-0.165C0.42,-0.179 0.423,-0.194 0.423,-0.211L0.423,-0.527L0.546,-0.527L0.546,-0L0.426,-0L0.424,-0.11L0.446,-0.122C0.438,-0.097 0.425,-0.074 0.406,-0.055C0.387,-0.035 0.364,-0.019 0.338,-0.008C0.312,0.004 0.284,0.01 0.255,0.01Z" style="fill:white;fill-rule:nonzero;"/>
            </g>
        </g>
    </g>
</svg>
