<?xml version="1.0" encoding="UTF-8" standalone="no"?>
<!DOCTYPE svg PUBLIC "-//W3C//DTD SVG 1.1//EN" "http://www.w3.org/Graphics/SVG/1.1/DTD/svg11.dtd">
<svg width="100%" height="100%" viewBox="0 0 418 201" version="1.1" xmlns="http://www.w3.org/2000/svg" xmlns:xlink="http://www.w3.org/1999/xlink" xml:space="preserve" xmlns:serif="http://www.serif.com/" style="fill-rule:evenodd;clip-rule:evenodd;stroke-linejoin:round;stroke-miterlimit:2;">
    <g transform="matrix(1,0,0,1,-2688,-2687.96)">
        <g id="Artboard5" transform="matrix(0.851691,0,0,1,398.063,252.423)">
            <rect x="2688.7" y="2435.54" width="490.217" height="200.453" style="fill:none;"/>
            <g transform="matrix(8.26645,0,0,7.04046,2694.78,2437.83)">
                <path d="M19.55,2.62L16.35,2.62L16.65,0.43L25.52,0.43L25.22,2.62L22.02,2.62L20.77,11.68L18.3,11.68L19.55,2.62Z" style="fill:white;fill-rule:nonzero;"/>
                <path d="M26.85,0.43L34.48,0.43L34.16,2.72L29.01,2.72L28.72,4.82L33.58,4.82L33.26,7.11L28.4,7.11L28.08,9.4L33.51,9.4L33.19,11.69L25.29,11.69L26.85,0.43Z" style="fill:white;fill-rule:nonzero;"/>
                <path d="M43.67,3.35C43.26,2.76 42.59,2.43 41.68,2.43C39.81,2.43 38.22,3.96 37.93,6.06C37.64,8.16 38.81,9.69 40.59,9.69C41.59,9.69 42.46,9.24 43.07,8.48L44.91,10.02C43.79,11.36 42.12,11.98 40.59,11.98C37.09,11.98 34.86,9.67 35.36,6.06C35.86,2.45 38.73,0.14 42.23,0.14C43.48,0.14 45,0.57 45.79,1.79L43.67,3.35Z" style="fill:white;fill-rule:nonzero;"/>
                <path d="M47.69,0.43L50.16,0.43L49.51,5.11L54.51,0.43L57.74,0.43L52.03,5.66L56.61,11.69L53.16,11.69L49.34,6.35L48.6,11.69L46.13,11.69L47.69,0.43Z" style="fill:white;fill-rule:nonzero;"/>
                <path d="M19.33,17.1C18.94,16.49 18.03,16.2 17.3,16.2C16.46,16.2 15.25,16.58 15.11,17.6C14.77,20.07 21.19,18.48 20.54,23.22C20.12,26.24 17.51,27.68 14.73,27.68C13,27.68 11.55,27.16 10.44,25.98L12.88,23.65C13.38,24.45 14.3,24.93 15.29,24.93C16.28,24.93 17.41,24.47 17.54,23.52C17.88,21.03 11.38,22.37 12,17.86C12.4,14.97 15.1,13.46 17.75,13.46C19.27,13.46 20.68,13.86 21.69,14.87L19.34,17.11L19.33,17.1Z" style="fill:white;fill-rule:nonzero;"/>
                <path d="M26.3,16.43L22.45,16.43L22.82,13.79L33.48,13.79L33.11,16.43L29.27,16.43L27.76,27.33L24.79,27.33L26.3,16.43Z" style="fill:white;fill-rule:nonzero;"/>
                <path d="M0.09,20.56L0.09,13.03L15.23,2.84L15.23,10.6L0.09,20.56Z" style="fill:white;fill-rule:nonzero;"/>
                <path d="M47.33,13.79L52.56,13.79C55.32,13.79 57.51,14.75 57.07,17.9C56.81,19.79 55.6,21.26 53.64,21.61L56.28,27.33L52.72,27.33L50.65,21.92L49.18,21.92L48.43,27.33L45.46,27.33L47.33,13.79ZM49.52,19.39L51.28,19.39C52.36,19.39 53.78,19.35 53.98,17.88C54.17,16.52 52.98,16.31 51.89,16.31L49.95,16.31L49.52,19.39Z" style="fill:white;fill-rule:nonzero;"/>
                <path d="M41.37,18.02L40.12,13.79L37.67,13.79L33.57,21L41.37,18.02Z" style="fill:white;fill-rule:nonzero;"/>
                <path d="M41.66,19.02L30.83,25.82L29.97,27.33L33.24,27.33L34.76,24.46L40,24.46L40.76,27.33L44.11,27.33L41.66,19.02Z" style="fill:white;fill-rule:nonzero;"/>
                <path d="M0.09,13.1L0.09,20.87L9.81,27.14L9.81,19.22L0.09,13.1ZM7.19,21.62L7.66,20.59L8.13,22.01L8.56,22.27L6.89,22.63L6.15,21.39L7.2,21.63L7.19,21.62ZM8.6,24.7L7.66,23.68L6.72,23.93L6.8,23.33L8.85,22.45L9.17,22.64L8.41,23.28L8.59,24.7L8.6,24.7Z" style="fill:white;fill-rule:nonzero;"/>
            </g>
        </g>
    </g>
</svg>
