<?xml version="1.0" encoding="UTF-8" standalone="no"?>
<!DOCTYPE svg PUBLIC "-//W3C//DTD SVG 1.1//EN" "http://www.w3.org/Graphics/SVG/1.1/DTD/svg11.dtd">
<svg width="100%" height="100%" viewBox="0 0 448 87" version="1.1" xmlns="http://www.w3.org/2000/svg" xmlns:xlink="http://www.w3.org/1999/xlink" xml:space="preserve" xmlns:serif="http://www.serif.com/" style="fill-rule:evenodd;clip-rule:evenodd;stroke-linejoin:round;stroke-miterlimit:2;">
    <g transform="matrix(1,0,0,1,-611.016,-2216.91)">
        <g transform="matrix(1,0,0,1,-32.799,2196.66)">
            <g transform="matrix(1,0,0,1,733.143,34.3875)">
                <path d="M0,26.724L-7.257,39.291C-7.819,40.262 -8.859,40.866 -9.988,40.866L-51.705,40.861C-52.829,40.861 -53.869,40.257 -54.436,39.285L-56.426,35.835C-57.151,34.575 -56.242,32.999 -54.788,32.999L-32.664,33.005C-31.535,33.005 -30.495,32.406 -29.933,31.429L-27.213,26.719C-26.651,25.742 -25.611,25.138 -24.482,25.143L-15.975,25.143C-14.515,25.143 -13.606,23.568 -14.336,22.308L-28.578,-2.353L-70.663,-2.358C-72.117,-2.358 -73.026,-3.934 -72.296,-5.194L-68.042,-12.562C-67.48,-13.538 -66.441,-14.137 -65.317,-14.137L-23.589,-14.142C-22.465,-14.142 -21.426,-13.538 -20.859,-12.567L0,23.573C0.562,24.545 0.562,25.747 0,26.724" style="fill:white;fill-rule:nonzero;"/>
            </g>
            <g transform="matrix(1,0,0,1,716.538,52.7561)">
                <path d="M0,37.112L-4.259,44.485C-4.821,45.462 -5.861,46.06 -6.984,46.06L-48.707,46.06C-49.836,46.06 -50.875,45.462 -51.437,44.485L-72.301,8.35C-72.863,7.379 -72.863,6.176 -72.301,5.199L-65.044,-7.372C-64.477,-8.344 -63.437,-8.948 -62.313,-8.948L-20.591,-8.943C-19.467,-8.943 -18.422,-8.344 -17.86,-7.367L-15.87,-3.922C-15.145,-2.662 -16.053,-1.087 -17.508,-1.087L-39.637,-1.076C-40.761,-1.076 -41.801,-0.477 -42.363,0.499L-45.078,5.194C-45.64,6.171 -46.68,6.769 -47.803,6.769L-56.321,6.769C-57.776,6.775 -58.684,8.345 -57.954,9.605L-44.632,32.696C-44.07,33.672 -43.03,34.271 -41.901,34.271L-1.638,34.276C-0.184,34.276 0.725,35.852 0,37.112" style="fill:white;fill-rule:nonzero;"/>
            </g>
            <g transform="matrix(1,0,0,1,802.444,79.4424)">
                <path d="M0,-35.155C-1.329,-33.761 -3.072,-31.801 -5.228,-29.279C-7.386,-26.756 -9.694,-23.951 -12.151,-20.864C-14.608,-17.777 -17.081,-14.556 -19.57,-11.204C-22.06,-7.851 -24.301,-4.647 -26.293,-1.594L0.597,-1.594L0.597,8.464L-40.831,8.464L-40.831,0.995C-39.371,-1.66 -37.544,-4.547 -35.354,-7.669C-33.162,-10.789 -30.906,-13.925 -28.582,-17.08C-26.258,-20.233 -23.951,-23.238 -21.66,-26.093C-19.37,-28.946 -17.328,-31.436 -15.535,-33.562L-39.536,-33.562L-39.536,-43.619L0,-43.619L0,-35.155Z" style="fill:white;fill-rule:nonzero;"/>
            </g>
            <g transform="matrix(1,0,0,1,855.823,38.6113)">
                <path d="M0,47.702C-2.324,48.3 -5.345,48.914 -9.062,49.544C-12.781,50.174 -16.864,50.49 -21.311,50.49C-25.494,50.49 -28.997,49.893 -31.818,48.697C-34.64,47.503 -36.897,45.844 -38.59,43.718C-40.283,41.594 -41.495,39.055 -42.225,36.1C-42.956,33.147 -43.32,29.91 -43.32,26.391L-43.32,-2.788L-31.27,-2.788L-31.27,24.498C-31.27,30.075 -30.458,34.059 -28.83,36.448C-27.204,38.839 -24.366,40.034 -20.315,40.034C-18.856,40.034 -17.312,39.969 -15.685,39.834C-14.059,39.702 -12.846,39.536 -12.05,39.337L-12.05,-2.788L0,-2.788L0,47.702Z" style="fill:white;fill-rule:nonzero;"/>
            </g>
            <g transform="matrix(1,0,0,1,871.159,85.1185)">
                <path d="M0,-47.603C2.323,-48.266 5.343,-48.897 9.062,-49.495C12.78,-50.093 16.895,-50.391 21.411,-50.391C25.659,-50.391 29.211,-49.809 32.067,-48.648C34.92,-47.486 37.196,-45.86 38.889,-43.769C40.582,-41.678 41.776,-39.153 42.473,-36.2C43.17,-33.245 43.519,-30.008 43.519,-26.49L43.519,2.788L31.469,2.788L31.469,-24.598C31.469,-27.386 31.286,-29.759 30.921,-31.719C30.556,-33.676 29.959,-35.269 29.129,-36.499C28.298,-37.727 27.17,-38.623 25.743,-39.188C24.315,-39.751 22.572,-40.034 20.515,-40.034C18.987,-40.034 17.393,-39.935 15.735,-39.735C14.074,-39.536 12.846,-39.37 12.05,-39.238L12.05,2.788L0,2.788L0,-47.603Z" style="fill:white;fill-rule:nonzero;"/>
            </g>
            <g transform="matrix(1,0,0,1,961.483,66.9937)">
                <path d="M0,-10.258C0,-11.917 -0.233,-13.494 -0.697,-14.988C-1.162,-16.482 -1.842,-17.777 -2.739,-18.872C-3.635,-19.968 -4.73,-20.829 -6.025,-21.461C-7.319,-22.092 -8.863,-22.407 -10.656,-22.407C-12.515,-22.407 -14.141,-22.059 -15.535,-21.362C-16.929,-20.665 -18.109,-19.751 -19.071,-18.623C-20.034,-17.494 -20.781,-16.199 -21.311,-14.74C-21.844,-13.278 -22.208,-11.784 -22.407,-10.258L0,-10.258ZM-34.955,-4.88C-34.955,-9.461 -34.275,-13.477 -32.913,-16.93C-31.553,-20.381 -29.744,-23.254 -27.486,-25.544C-25.23,-27.834 -22.64,-29.561 -19.718,-30.723C-16.797,-31.883 -13.81,-32.466 -10.755,-32.466C-3.585,-32.466 2.007,-30.24 6.025,-25.793C10.041,-21.344 12.05,-14.705 12.05,-5.876C12.05,-5.212 12.033,-4.465 12,-3.636C11.966,-2.805 11.916,-2.057 11.851,-1.395L-22.507,-1.395C-22.175,2.788 -20.698,6.024 -18.075,8.315C-15.453,10.605 -11.652,11.751 -6.672,11.751C-3.752,11.751 -1.08,11.486 1.344,10.954C3.768,10.423 5.676,9.859 7.071,9.261L8.664,19.12C8,19.454 7.086,19.802 5.926,20.166C4.763,20.532 3.436,20.863 1.942,21.162C0.448,21.46 -1.162,21.71 -2.888,21.908C-4.615,22.108 -6.373,22.208 -8.166,22.208C-12.747,22.208 -16.731,21.526 -20.117,20.166C-23.502,18.806 -26.291,16.913 -28.482,14.49C-30.673,12.066 -32.3,9.211 -33.362,5.925C-34.424,2.638 -34.955,-0.962 -34.955,-4.88" style="fill:white;fill-rule:nonzero;"/>
            </g>
            <g transform="matrix(1,0,0,1,995.74,80.8363)">
                <path d="M0,-20.316C0,-15.203 1.111,-11.469 3.336,-9.113C5.56,-6.756 8.431,-5.577 11.951,-5.577C13.875,-5.577 15.685,-5.842 17.378,-6.373C19.071,-6.904 20.448,-7.534 21.511,-8.266L21.511,-35.254C20.647,-35.453 19.584,-35.635 18.324,-35.802C17.062,-35.967 15.469,-36.051 13.544,-36.051C9.162,-36.051 5.809,-34.607 3.486,-31.718C1.161,-28.831 0,-25.029 0,-20.316M33.56,1.793C33.56,10.091 31.453,16.166 27.238,20.016C23.02,23.866 16.564,25.793 7.868,25.793C4.681,25.793 1.576,25.526 -1.444,24.996C-4.466,24.464 -7.204,23.767 -9.66,22.905L-7.469,12.648C-5.412,13.509 -3.071,14.206 -0.448,14.739C2.174,15.269 5.012,15.535 8.067,15.535C12.912,15.535 16.365,14.539 18.424,12.547C20.481,10.555 21.511,7.601 21.511,3.684L21.511,1.692C20.316,2.29 18.738,2.888 16.781,3.485C14.821,4.083 12.581,4.381 10.058,4.381C6.738,4.381 3.701,3.851 0.946,2.788C-1.81,1.726 -4.167,0.166 -6.125,-1.893C-8.083,-3.95 -9.61,-6.523 -10.705,-9.611C-11.801,-12.697 -12.349,-16.266 -12.349,-20.316C-12.349,-24.101 -11.768,-27.586 -10.606,-30.772C-9.445,-33.959 -7.752,-36.681 -5.527,-38.938C-3.303,-41.195 -0.597,-42.955 2.589,-44.217C5.776,-45.477 9.394,-46.109 13.444,-46.109C17.361,-46.109 21.079,-45.811 24.597,-45.213C28.116,-44.615 31.105,-43.984 33.56,-43.321L33.56,1.793Z" style="fill:white;fill-rule:nonzero;"/>
            </g>
            <g transform="matrix(1,0,0,1,1079.39,62.0132)">
                <path d="M0,-0.198C0,-5.377 -1.113,-9.475 -3.336,-12.498C-5.562,-15.518 -8.665,-17.029 -12.648,-17.029C-16.631,-17.029 -19.735,-15.518 -21.96,-12.498C-24.184,-9.475 -25.295,-5.377 -25.295,-0.198C-25.295,5.047 -24.184,9.197 -21.96,12.25C-19.735,15.305 -16.631,16.831 -12.648,16.831C-8.665,16.831 -5.562,15.305 -3.336,12.25C-1.113,9.197 0,5.047 0,-0.198M12.348,-0.198C12.348,3.919 11.75,7.669 10.556,11.055C9.361,14.441 7.667,17.329 5.477,19.719C3.286,22.109 0.646,23.969 -2.44,25.296C-5.528,26.623 -8.93,27.287 -12.648,27.287C-16.367,27.287 -19.753,26.623 -22.806,25.296C-25.86,23.969 -28.482,22.109 -30.673,19.719C-32.864,17.329 -34.574,14.441 -35.802,11.055C-37.031,7.669 -37.644,3.919 -37.644,-0.198C-37.644,-4.314 -37.031,-8.048 -35.802,-11.402C-34.574,-14.754 -32.849,-17.626 -30.624,-20.016C-28.4,-22.406 -25.761,-24.249 -22.706,-25.543C-19.653,-26.838 -16.3,-27.485 -12.648,-27.485C-8.997,-27.485 -5.627,-26.838 -2.54,-25.543C0.547,-24.249 3.187,-22.406 5.377,-20.016C7.568,-17.626 9.276,-14.754 10.506,-11.402C11.734,-8.048 12.348,-4.314 12.348,-0.198" style="fill:white;fill-rule:nonzero;"/>
            </g>
        </g>
    </g>
</svg>
